<svg xmlns:xlink="http://www.w3.org/1999/xlink" width="85" height="24" viewBox="0 0 85 24" fill="none" xmlns="http://www.w3.org/2000/svg" id="svg1937688739_1659">
<path fill-rule="evenodd" clip-rule="evenodd" d="M8.30769 0L0 8L16.6154 24L24.9231 16L33.2308 8L24.9231 0H8.30769ZM24.9231 0V16L16.6154 8L24.9231 0ZM44.6031 20.3077C49.1183 20.3077 51.6923 17.4445 51.6923 13.1385V11.4251H44.9196V14.0854H48.3165C48.2532 15.9341 47.2194 17.4896 44.6875 17.4896C41.7336 17.4896 40.4888 15.2577 40.4888 12.1466V11.9662C40.4888 8.67472 42.0291 6.57808 44.6453 6.57808C46.4599 6.57808 47.6203 7.43477 47.9157 9.32848H51.3126C50.9539 5.33813 47.9579 3.69232 44.6031 3.69232C40.1513 3.69232 36.9231 7.07399 36.9231 11.9211V12.1015C36.9231 16.8809 39.666 20.3077 44.6031 20.3077ZM64.5942 16.142C64.2349 18.8166 62.3324 20.3077 59.3095 20.3077C55.9695 20.3077 53.5385 17.9646 53.5385 14.0119V13.8225C53.5385 9.91714 56.0118 7.38464 59.2249 7.38464C62.0788 7.38464 64.6154 9.25451 64.6154 13.6805V14.6272H56.646C56.7305 16.6864 57.7241 17.8699 59.3941 17.8699C60.8104 17.8699 61.5079 17.1834 61.6982 16.142H64.5942ZM59.2249 9.75154C57.8509 9.75154 56.9208 10.7692 56.6883 12.5207H61.6349C61.5291 10.6509 60.6836 9.75154 59.2249 9.75154ZM69.8119 20.3077H66.4615V7.67447H69.8119V9.60687C70.4126 8.42324 71.7066 7.38464 73.5088 7.38464C75.1031 7.38464 76.3046 8.08511 76.8822 9.58278C77.8527 8.0609 79.4239 7.38464 80.9489 7.38464C83.1901 7.38464 84.9231 8.8581 84.9231 12.2157V20.3077H81.5959V12.6022C81.5959 10.9837 80.9027 10.259 79.7011 10.259C78.4072 10.259 77.3675 11.1286 77.3675 12.8437V20.3077H74.0402V12.6022C74.0402 10.9837 73.324 10.259 72.1456 10.259C70.8516 10.259 69.8119 11.1286 69.8119 12.8437V20.3077Z" fill="#FFFFFF"></path>
</svg>