<svg xmlns:xlink="http://www.w3.org/1999/xlink" width="75" height="26" viewBox="0 0 75 26" fill="none" xmlns="http://www.w3.org/2000/svg" id="svg-1350041969_4680">
<path d="M63.0393 25.7998C62.9271 25.7998 62.8359 25.7094 62.8359 25.5979V1.27933C62.8359 1.18369 62.9036 1.10119 62.9979 1.08169L67.2455 0.20414C67.3719 0.178044 67.4905 0.273735 67.4905 0.401771V25.5979C67.4905 25.7094 67.3993 25.7998 67.2871 25.7998H63.0393Z" fill="#FFFFFF"></path>
<path d="M8.44391 25.7998C6.82896 25.7998 5.38703 25.4028 4.11814 24.6087C2.84925 23.8146 1.84567 22.7285 1.1074 21.3505C0.369133 19.9726 0 18.4077 0 16.656C0 14.9044 0.369133 13.3512 1.1074 11.9966C1.84567 10.6186 2.84925 9.54421 4.11814 8.77347C5.38703 7.97938 6.82896 7.58233 8.44391 7.58233C9.73588 7.58233 10.8664 7.82757 11.8353 8.31803C12.612 8.71118 13.2702 9.23187 13.8096 9.8801C13.9319 10.0271 14.1885 9.94396 14.1885 9.75228V1.24063C14.1885 1.14843 14.2529 1.06888 14.3427 1.05008L18.3851 0.203985C18.5053 0.178825 18.6182 0.271086 18.6182 0.394533V25.1848C18.6182 25.2923 18.5314 25.3794 18.4246 25.3794H14.8323C14.7399 25.3794 14.6602 25.3135 14.6424 25.2222L14.2743 23.3322C14.2417 23.165 14.0236 23.1155 13.9155 23.2465C13.3996 23.8722 12.7524 24.4313 11.9737 24.9239C11.074 25.5078 9.89738 25.7998 8.44391 25.7998ZM9.37829 21.876C10.8087 21.876 11.9737 21.3973 12.8735 20.4397C13.7963 19.4588 14.2577 18.2092 14.2577 16.6911C14.2577 15.1729 13.7963 13.9351 12.8735 12.9775C11.9737 11.9966 10.8087 11.5061 9.37829 11.5061C7.97096 11.5061 6.80589 11.9848 5.88306 12.9425C4.96023 13.9001 4.49881 15.1379 4.49881 16.656C4.49881 18.1741 4.96023 19.4237 5.88306 20.4046C6.80589 21.3855 7.97096 21.876 9.37829 21.876Z" fill="#FFFFFF"></path>
<path d="M30.4015 25.7999C28.5619 25.7999 26.9307 25.418 25.5079 24.6542C24.0852 23.8904 22.9691 22.8163 22.1595 21.4318C21.3501 20.0474 20.9453 18.4482 20.9453 16.6341C20.9453 14.7961 21.3378 13.1611 22.1228 11.7289C22.9323 10.2967 24.0361 9.1868 25.4343 8.3991C26.8571 7.58754 28.5251 7.18176 30.4384 7.18176C32.2291 7.18176 33.8113 7.56367 35.1849 8.3275C36.5585 9.09132 37.6256 10.1416 38.386 11.4783C39.171 12.791 39.5635 14.2591 39.5635 15.8822C39.5635 16.1447 39.5512 16.4193 39.5266 16.7056C39.5266 16.9351 39.5188 17.1722 39.503 17.417C39.4963 17.5207 39.4067 17.6008 39.2991 17.6008H25.8387C25.7195 17.6008 25.6249 17.6985 25.6366 17.8132C25.7682 19.0968 26.2527 20.112 27.0901 20.859C27.9977 21.6467 29.0892 22.0405 30.3648 22.0405C31.3215 22.0405 32.1187 21.8376 32.7564 21.4318C33.3805 21.0271 33.852 20.5163 34.1712 19.8997C34.2071 19.8302 34.2797 19.7849 34.36 19.7849H38.736C38.8735 19.7849 38.9724 19.9128 38.9292 20.039C38.5791 21.0621 38.0302 22.0038 37.2822 22.864C36.4973 23.771 35.5161 24.4872 34.3386 25.0123C33.1858 25.5374 31.8734 25.7999 30.4015 25.7999ZM30.4384 10.9054C29.2855 10.9054 28.2675 11.2276 27.3844 11.8721C26.5557 12.4545 26.0078 13.3313 25.7407 14.5023C25.7131 14.6237 25.8105 14.7365 25.9391 14.7365H34.5615C34.68 14.7365 34.7745 14.6397 34.7626 14.5257C34.6515 13.4545 34.2158 12.5938 33.4555 11.9437C32.6461 11.2515 31.6404 10.9054 30.4384 10.9054Z" fill="#FFFFFF"></path>
<path d="M51.3473 25.7999C49.5075 25.7999 47.8762 25.418 46.4535 24.6542C45.0308 23.8904 43.9147 22.8163 43.1052 21.4318C42.2957 20.0474 41.891 18.4482 41.891 16.6341C41.891 14.7961 42.2835 13.1611 43.0684 11.7289C43.8779 10.2967 44.9817 9.1868 46.3799 8.3991C47.8027 7.58754 49.4708 7.18176 51.3841 7.18176C53.1747 7.18176 54.7569 7.56367 56.1306 8.3275C57.5043 9.09132 58.5713 10.1416 59.3318 11.4783C60.1168 12.791 60.5091 14.2591 60.5091 15.8822C60.5091 16.1447 60.4969 16.4193 60.4724 16.7056C60.4724 16.9351 60.4645 17.1722 60.4488 17.417C60.4421 17.5207 60.3525 17.6008 60.2449 17.6008H46.7843C46.6652 17.6008 46.5706 17.6985 46.5823 17.8132C46.7139 19.0968 47.1984 20.112 48.0357 20.859C48.9433 21.6467 50.0349 22.0405 51.3104 22.0405C52.2671 22.0405 53.0644 21.8376 53.7022 21.4318C54.3261 21.0271 54.7977 20.5163 55.1169 19.8997C55.1528 19.8302 55.2254 19.7849 55.3057 19.7849H59.6818C59.8193 19.7849 59.9181 19.9128 59.8749 20.039C59.5249 21.0621 58.9759 22.0038 58.2279 22.864C57.4429 23.771 56.4618 24.4872 55.2844 25.0123C54.1314 25.5374 52.8191 25.7999 51.3473 25.7999ZM51.3841 10.9054C50.2311 10.9054 49.2132 11.2276 48.3301 11.8721C47.5014 12.4545 46.9535 13.3313 46.6864 14.5023C46.6587 14.6237 46.756 14.7365 46.8847 14.7365H55.5071C55.6257 14.7365 55.7202 14.6397 55.7084 14.5257C55.5972 13.4545 55.1615 12.5938 54.4013 11.9437C53.5917 11.2515 52.586 10.9054 51.3841 10.9054Z" fill="#FFFFFF"></path>
<path d="M72.1451 25.7998C73.4305 25.7998 74.4724 24.7578 74.4724 23.4725C74.4724 22.1872 73.4305 21.1453 72.1451 21.1453C70.8598 21.1453 69.8179 22.1872 69.8179 23.4725C69.8179 24.7578 70.8598 25.7998 72.1451 25.7998Z" fill="#FFFFFF"></path>
</svg>