<svg xmlns:xlink="http://www.w3.org/1999/xlink" width="16" height="16" viewBox="0 0 16 16" fill="none" xmlns="http://www.w3.org/2000/svg" id="svg1457116792_3190">
<g clip-path="url(#svg1457116792_3190_clip0_308_359)" fill="none">
<g filter="url(#svg1457116792_3190_filter0_ii_308_359)" fill="none">
<path d="M7.66948 13C7.66948 13 0.240906 8.89474 0.240906 3.93421C0.240906 1.76141 1.97944 0 4.12402 0C5.70359 0 7.06288 0.955538 7.66948 2.3272C8.27608 0.955538 9.63537 0 11.2149 0C13.3595 0 15.098 1.76141 15.098 3.93421C15.098 8.89474 7.66948 13 7.66948 13Z" fill="url(&quot;#svg1457116792_3190_paint0_radial_308_359&quot;)"></path>
<path d="M7.66948 13C7.66948 13 0.240906 8.89474 0.240906 3.93421C0.240906 1.76141 1.97944 0 4.12402 0C5.70359 0 7.06288 0.955538 7.66948 2.3272C8.27608 0.955538 9.63537 0 11.2149 0C13.3595 0 15.098 1.76141 15.098 3.93421C15.098 8.89474 7.66948 13 7.66948 13Z" fill="url(&quot;#svg1457116792_3190_paint1_radial_308_359&quot;)" fill-opacity="0.2"></path>
<path d="M7.66948 13C7.66948 13 0.240906 8.89474 0.240906 3.93421C0.240906 1.76141 1.97944 0 4.12402 0C5.70359 0 7.06288 0.955538 7.66948 2.3272C8.27608 0.955538 9.63537 0 11.2149 0C13.3595 0 15.098 1.76141 15.098 3.93421C15.098 8.89474 7.66948 13 7.66948 13Z" fill="url(&quot;#svg1457116792_3190_paint2_radial_308_359&quot;)" fill-opacity="0.2"></path>
</g>
</g>
<defs>
<filter id="svg1457116792_3190_filter0_ii_308_359" x="-0.759094" y="-1" width="16.8571" height="15" filterUnits="userSpaceOnUse" color-interpolation-filters="sRGB">
<feFlood flood-opacity="0" result="BackgroundImageFix"></feFlood>
<feBlend mode="normal" in="SourceGraphic" in2="BackgroundImageFix" result="shape"></feBlend>
<feColorMatrix in="SourceAlpha" type="matrix" values="0 0 0 0 0 0 0 0 0 0 0 0 0 0 0 0 0 0 127 0" result="hardAlpha"></feColorMatrix>
<feOffset dx="1" dy="1"></feOffset>
<feGaussianBlur stdDeviation="2"></feGaussianBlur>
<feComposite in2="hardAlpha" operator="arithmetic" k2="-1" k3="1"></feComposite>
<feColorMatrix type="matrix" values="0 0 0 0 0 0 0 0 0 0 0 0 0 0 0 0 0 0 0.25 0"></feColorMatrix>
<feBlend mode="normal" in2="shape" result="effect1_innerShadow_308_359"></feBlend>
<feColorMatrix in="SourceAlpha" type="matrix" values="0 0 0 0 0 0 0 0 0 0 0 0 0 0 0 0 0 0 127 0" result="hardAlpha"></feColorMatrix>
<feOffset dx="-1" dy="-1"></feOffset>
<feGaussianBlur stdDeviation="2"></feGaussianBlur>
<feComposite in2="hardAlpha" operator="arithmetic" k2="-1" k3="1"></feComposite>
<feColorMatrix type="matrix" values="0 0 0 0 0 0 0 0 0 0 0 0 0 0 0 0 0 0 0.25 0"></feColorMatrix>
<feBlend mode="normal" in2="effect1_innerShadow_308_359" result="effect2_innerShadow_308_359"></feBlend>
</filter>
<radialGradient id="svg1457116792_3190_paint0_radial_308_359" cx="0" cy="0" r="1" gradientUnits="userSpaceOnUse" gradientTransform="translate(7.66948 3.9) rotate(90) scale(13.325 12.6905)">
<stop stop-color="#B593EC"></stop>
<stop offset="1" stop-color="#521BAC"></stop>
</radialGradient>
<radialGradient id="svg1457116792_3190_paint1_radial_308_359" cx="0" cy="0" r="1" gradientUnits="userSpaceOnUse" gradientTransform="translate(3.95519 3.9) rotate(90) scale(5.85 6.68571)">
<stop stop-color="#E1CEFF"></stop>
<stop offset="1" stop-color="#956ED4" stop-opacity="0"></stop>
</radialGradient>
<radialGradient id="svg1457116792_3190_paint2_radial_308_359" cx="0" cy="0" r="1" gradientUnits="userSpaceOnUse" gradientTransform="translate(11.3838 3.9) rotate(90) scale(5.85 6.68571)">
<stop stop-color="#E1CEFF"></stop>
<stop offset="1" stop-color="#956ED4" stop-opacity="0"></stop>
</radialGradient>
<clipPath id="svg1457116792_3190_clip0_308_359">
<rect width="14.8571" height="16" fill="white" transform="translate(0.240906)"></rect>
</clipPath>
<radialGradient id="svg1457116792_3190_paint0_radial_308_359" cx="0" cy="0" r="1" gradientUnits="userSpaceOnUse" gradientTransform="translate(7.66948 3.9) rotate(90) scale(13.325 12.6905)">
<stop stop-color="#B593EC"></stop>
<stop offset="1" stop-color="#521BAC"></stop>
</radialGradient><radialGradient id="svg1457116792_3190_paint1_radial_308_359" cx="0" cy="0" r="1" gradientUnits="userSpaceOnUse" gradientTransform="translate(3.95519 3.9) rotate(90) scale(5.85 6.68571)">
<stop stop-color="#E1CEFF"></stop>
<stop offset="1" stop-color="#956ED4" stop-opacity="0"></stop>
</radialGradient><radialGradient id="svg1457116792_3190_paint2_radial_308_359" cx="0" cy="0" r="1" gradientUnits="userSpaceOnUse" gradientTransform="translate(11.3838 3.9) rotate(90) scale(5.85 6.68571)">
<stop stop-color="#E1CEFF"></stop>
<stop offset="1" stop-color="#956ED4" stop-opacity="0"></stop>
</radialGradient><radialGradient id="svg1457116792_3190_paint0_radial_308_359" cx="0" cy="0" r="1" gradientUnits="userSpaceOnUse" gradientTransform="translate(7.66948 3.9) rotate(90) scale(13.325 12.6905)">
<stop stop-color="#B593EC"></stop>
<stop offset="1" stop-color="#521BAC"></stop>
</radialGradient><radialGradient id="svg1457116792_3190_paint1_radial_308_359" cx="0" cy="0" r="1" gradientUnits="userSpaceOnUse" gradientTransform="translate(3.95519 3.9) rotate(90) scale(5.85 6.68571)">
<stop stop-color="#E1CEFF"></stop>
<stop offset="1" stop-color="#956ED4" stop-opacity="0"></stop>
</radialGradient><radialGradient id="svg1457116792_3190_paint2_radial_308_359" cx="0" cy="0" r="1" gradientUnits="userSpaceOnUse" gradientTransform="translate(11.3838 3.9) rotate(90) scale(5.85 6.68571)">
<stop stop-color="#E1CEFF"></stop>
<stop offset="1" stop-color="#956ED4" stop-opacity="0"></stop>
</radialGradient></defs>
</svg>