<svg xmlns:xlink="http://www.w3.org/1999/xlink" width="74" height="73" viewBox="0 0 74 73" fill="none" xmlns="http://www.w3.org/2000/svg" id="svg1033690782_2145">
<g clip-path="url(#svg1033690782_2145_clip0_2594_38422)" fill="none">
<circle cx="32.8792" cy="59.4502" r="7.83578" transform="rotate(9.97417 32.8792 59.4502)" fill="url(&quot;#svg1033690782_2145_paint0_radial_2594_38422&quot;)"></circle>
<path fill-rule="evenodd" clip-rule="evenodd" d="M45.6502 49.0752C47.021 46.3465 49.359 44.2723 51.7515 42.3746C55.6171 39.3085 58.418 34.8692 59.3399 29.6275C61.3387 18.2617 53.7452 7.42756 42.3794 5.42875C31.0136 3.42993 20.1794 11.0234 18.1806 22.3892C17.2589 27.6306 18.377 32.759 20.9644 36.9599C22.5658 39.56 24.0559 42.3074 24.4135 45.3401L24.6963 47.7387C25.2409 52.3576 28.7507 56.0723 33.3313 56.8778C37.9118 57.6833 42.4784 55.389 44.5661 51.2331L45.6502 49.0752Z" fill="url(&quot;#svg1033690782_2145_paint1_radial_2594_38422&quot;)"></path>
<path d="M23.0393 48.6022C23.0783 47.8177 23.7961 47.2449 24.5698 47.3809L44.8078 50.94C45.5815 51.0761 46.0608 51.8594 45.8299 52.6102L43.508 60.158C43.3144 60.7875 42.6823 61.1743 42.0336 61.0602L23.7249 57.8404C23.0762 57.7263 22.614 57.1471 22.6467 56.4892L23.0393 48.6022Z" fill="url(&quot;#svg1033690782_2145_paint2_radial_2594_38422&quot;)"></path>
</g>
<defs>
<radialGradient id="svg1033690782_2145_paint0_radial_2594_38422" cx="0" cy="0" r="1" gradientUnits="userSpaceOnUse" gradientTransform="translate(32.8792 62.0621) rotate(90) scale(5.22386)">
<stop stop-color="#6A6179"></stop>
<stop offset="1" stop-color="#372A4B"></stop>
</radialGradient>
<radialGradient id="svg1033690782_2145_paint1_radial_2594_38422" cx="0" cy="0" r="1" gradientUnits="userSpaceOnUse" gradientTransform="translate(38.7602 26.0084) rotate(99.9742) scale(34.9049 34.9049)">
<stop offset="0.0732287" stop-color="#FFFCF2"></stop>
<stop offset="0.519967" stop-color="#FFDD72"></stop>
<stop offset="0.745737" stop-color="#EDA30C"></stop>
</radialGradient>
<radialGradient id="svg1033690782_2145_paint2_radial_2594_38422" cx="0" cy="0" r="1" gradientUnits="userSpaceOnUse" gradientTransform="translate(33.784 54.3054) rotate(99.9742) scale(5.22386 11.7537)">
<stop stop-color="#DFD6DB"></stop>
<stop offset="1" stop-color="#796896"></stop>
</radialGradient>
<clipPath id="svg1033690782_2145_clip0_2594_38422">
<rect width="62.6863" height="62.6863" fill="white" transform="translate(11.5098) rotate(9.97417)"></rect>
</clipPath>
<radialGradient id="svg1033690782_2145_paint0_radial_2594_38422" cx="0" cy="0" r="1" gradientUnits="userSpaceOnUse" gradientTransform="translate(32.8792 62.0621) rotate(90) scale(5.22386)">
<stop stop-color="#6A6179"></stop>
<stop offset="1" stop-color="#372A4B"></stop>
</radialGradient><radialGradient id="svg1033690782_2145_paint1_radial_2594_38422" cx="0" cy="0" r="1" gradientUnits="userSpaceOnUse" gradientTransform="translate(38.7602 26.0084) rotate(99.9742) scale(34.9049 34.9049)">
<stop offset="0.0732287" stop-color="#FFFCF2"></stop>
<stop offset="0.519967" stop-color="#FFDD72"></stop>
<stop offset="0.745737" stop-color="#EDA30C"></stop>
</radialGradient><radialGradient id="svg1033690782_2145_paint2_radial_2594_38422" cx="0" cy="0" r="1" gradientUnits="userSpaceOnUse" gradientTransform="translate(33.784 54.3054) rotate(99.9742) scale(5.22386 11.7537)">
<stop stop-color="#DFD6DB"></stop>
<stop offset="1" stop-color="#796896"></stop>
</radialGradient><radialGradient id="svg1033690782_2145_paint0_radial_2594_38422" cx="0" cy="0" r="1" gradientUnits="userSpaceOnUse" gradientTransform="translate(32.8792 62.0621) rotate(90) scale(5.22386)">
<stop stop-color="#6A6179"></stop>
<stop offset="1" stop-color="#372A4B"></stop>
</radialGradient><radialGradient id="svg1033690782_2145_paint1_radial_2594_38422" cx="0" cy="0" r="1" gradientUnits="userSpaceOnUse" gradientTransform="translate(38.7602 26.0084) rotate(99.9742) scale(34.9049 34.9049)">
<stop offset="0.0732287" stop-color="#FFFCF2"></stop>
<stop offset="0.519967" stop-color="#FFDD72"></stop>
<stop offset="0.745737" stop-color="#EDA30C"></stop>
</radialGradient><radialGradient id="svg1033690782_2145_paint2_radial_2594_38422" cx="0" cy="0" r="1" gradientUnits="userSpaceOnUse" gradientTransform="translate(33.784 54.3054) rotate(99.9742) scale(5.22386 11.7537)">
<stop stop-color="#DFD6DB"></stop>
<stop offset="1" stop-color="#796896"></stop>
</radialGradient></defs>
</svg>