<svg xmlns:xlink="http://www.w3.org/1999/xlink" width="93" height="32" viewBox="0 0 93 32" fill="none" xmlns="http://www.w3.org/2000/svg" id="svg969622609_3531">
<path fill-rule="evenodd" clip-rule="evenodd" d="M1.92531 1.38047L19.6318 0.0727471C21.8067 -0.113917 22.3656 0.0119478 23.7331 1.00607L29.3842 4.98789L29.5261 5.09029L29.531 5.09393C30.3496 5.69484 30.6279 5.89917 30.6279 6.60494V28.4426C30.6279 29.8111 30.1298 30.6207 28.3911 30.7444L7.82924 31.9892C6.52366 32.051 5.9018 31.8644 5.21807 30.9929L1.05599 25.5807C0.30933 24.5845 0 23.8389 0 22.9674V3.55644C0 2.43752 0.497061 1.5042 1.92531 1.38047ZM5.281 5.61082C6.23459 6.38627 6.61539 6.36067 8.2943 6.24761L8.5119 6.23268L26.0904 5.17455C26.4637 5.17455 26.1533 4.80229 26.0285 4.73936L23.1091 2.62418C22.5501 2.18899 21.8056 1.69086 20.3763 1.81566L3.35463 3.05938C2.73383 3.12125 2.6101 3.43271 2.8565 3.68231L5.281 5.61082ZM6.33699 9.71743V28.2559C6.33699 29.2521 6.83299 29.6244 7.95084 29.5625L27.2711 28.4426C28.389 28.3807 28.5138 27.6959 28.5138 26.8863V8.47158C28.5138 7.66306 28.2045 7.22786 27.5197 7.28973L7.33005 8.47158C6.58552 8.53452 6.33699 8.90784 6.33699 9.71743ZM24.8488 11.8955C25.4088 11.8315 25.5325 11.2716 25.4088 10.7116L21.1208 10.9612C20.5 11.022 20.003 11.5201 20.1278 12.2059L21.7427 12.3915V20.977L15.4068 11.2726L10.8095 11.5819C9.93908 11.6449 9.62869 12.4534 9.75348 13.0134L11.3065 13.1393V25.3951L10.1876 25.7055C9.75348 25.8292 9.62869 26.4511 9.75348 26.7007L14.0382 26.4522C15.5924 26.4522 15.5923 25.3322 15.5923 25.3322L13.666 24.8959V15.6267L19.7555 25.2074L19.756 25.208C20.5001 26.1398 20.7488 26.4511 21.7427 26.4511C22.3645 26.4511 23.1091 26.2026 23.9176 25.7674V12.0801L24.8488 11.8955ZM44.1968 22.6665V22.6675L44.1978 22.6665H44.1968ZM44.1968 22.6665V14.2303H44.3429L50.4271 22.6675H52.3428V10.2687H50.2127V18.6974H50.0666L43.9824 10.2687H42.0592V22.6665H44.1968ZM62.8835 17.9678C62.8835 21.0185 61.1736 22.8574 58.363 22.8574C55.5449 22.8574 53.8436 21.0185 53.8436 17.9678C53.8436 14.9343 55.5705 13.0783 58.363 13.0783C61.1651 13.0783 62.8835 14.9257 62.8835 17.9678ZM56.027 17.9678C56.027 19.9358 56.8771 21.0697 58.363 21.0697C59.8499 21.0697 60.6915 19.9358 60.6915 17.9678C60.6915 16.0084 59.8414 14.866 58.363 14.866C56.8771 14.866 56.027 16.0084 56.027 17.9678ZM64.8301 13.3279V10.9653V10.9642H66.9528V13.3279H68.9634V15.0292H66.9528V19.6436C66.9528 20.5715 67.3485 20.9833 68.2413 20.9833C68.5336 20.9833 68.696 20.9672 68.9418 20.9428L68.9634 20.9406V22.6078C68.6541 22.6686 68.2583 22.7113 67.8466 22.7113C65.6898 22.7113 64.8301 21.9806 64.8301 20.1588V15.0292H63.3443V13.3279H64.8301ZM72.3628 22.6675H70.2402V13.2671H72.3628V22.6675ZM72.5687 10.4319C72.5687 11.1445 72.0012 11.713 71.2973 11.713V11.7119C70.6018 11.7119 70.0258 11.1445 70.0258 10.4319C70.0258 9.71834 70.6018 9.14235 71.2973 9.14235C72.0023 9.14235 72.5687 9.71834 72.5687 10.4319ZM82.7051 17.9678C82.7051 21.0185 80.9953 22.8574 78.1857 22.8574C75.3665 22.8574 73.6652 21.0185 73.6652 17.9678C73.6652 14.9343 75.3921 13.0783 78.1857 13.0783C80.9867 13.0783 82.7051 14.9257 82.7051 17.9678ZM75.8476 17.9678C75.8476 19.9358 76.6988 21.0697 78.1857 21.0697C79.6716 21.0697 80.5142 19.9358 80.5142 17.9678C80.5142 16.0084 79.663 14.866 78.1857 14.866C76.6988 14.866 75.8476 16.0084 75.8476 17.9678ZM86.1045 22.6675H83.9734V13.2671H86.0267V14.7711H86.1728C86.6197 13.7226 87.5648 13.0783 88.9664 13.0783C91.0624 13.0783 92.2058 14.3412 92.2058 16.5844V22.6675H90.0736V17.0911C90.0736 15.6564 89.473 14.9343 88.1749 14.9343C86.9045 14.9343 86.1045 15.8111 86.1045 17.1945V22.6675Z" fill="#FFFFFF"></path>
</svg>