<svg xmlns:xlink="http://www.w3.org/1999/xlink" width="74" height="40" fill="none" xmlns="http://www.w3.org/2000/svg" id="svg-965036014_1429"><path d="M43.907 35c-.7-.102-1.41-.164-2.1-.312-4.412-.946-7.818-4.53-8.514-8.978-.496-3.176.389-6.016 2.268-8.56 2.949-3.994 5.932-7.961 8.908-11.935a.55.55 0 0 1 .374-.205c1.774-.013 3.547-.01 5.32-.008.034 0 .067.013.155.03l-6.186 7.985c.11.023.176.05.24.047 5.204-.288 10.191 3.657 11.043 9.193.922 5.993-3.082 11.501-9.07 12.521-.544.093-1.094.149-1.642.222h-.796Zm.385-4.366c.418-.049.843-.064 1.253-.15 2.84-.6 4.791-2.758 5.122-5.68.443-3.915-2.37-7.591-6.647-7.387-1.65.078-3.075.693-4.197 1.914-1.597 1.736-2.037 3.803-1.64 6.077.532 3.033 3.083 5.193 6.108 5.226ZM18.177 14.16v-1.408h4.72v21.64h-4.708V32.78c-3.286 2.189-6.748 2.756-10.428 1.534-2.523-.838-4.496-2.436-5.95-4.659-2.794-4.266-2.299-10.024 1.1-13.839 3.326-3.73 9.808-5.447 15.266-1.657Zm-6.735 16.018c3.717.003 6.73-2.992 6.735-6.695.004-3.691-3.036-6.729-6.724-6.718-3.688.01-6.702 3.019-6.706 6.697a6.664 6.664 0 0 0 6.695 6.716Zm62.372-17.267c0 1.406.005 2.79-.009 4.174-.001.123-.104.262-.192.367-3.263 3.933-6.531 7.862-9.798 11.792-.203.246-.403.495-.666.819h10.215c.47 0 .472.001.472.473v3.849H57.35c-.008-.099-.022-.203-.022-.307-.002-1.241-.007-2.482.006-3.723a.83.83 0 0 1 .175-.482c3.37-4.08 6.746-8.153 10.122-12.227.097-.117.192-.236.342-.42H57.355v-4.314h16.459ZM23.055 9.326V5.019h7.884v29.367h-4.774V9.842c0-.344-.177-.516-.532-.516h-2.578Z" fill="#FFFFFF"></path></svg>