<svg xmlns:xlink="http://www.w3.org/1999/xlink" width="53" height="18" viewBox="0 0 53 18" fill="none" xmlns="http://www.w3.org/2000/svg" id="svg960884529_2000">
<path d="M0 10.99C0 15.3131 2.98742 18 6.76768 18C8.09622 18 9.42475 17.6783 10.3934 16.9523V13.5741C9.51521 14.3591 8.37778 14.7908 7.2007 14.7857C5.23687 14.7857 3.67049 13.3776 3.67049 10.9992C3.67049 8.62074 5.18198 7.28186 7.1082 7.2391H7.2007C8.38388 7.21568 9.53148 7.64534 10.4097 8.44052V5.05617C9.44711 4.31393 8.11248 4.03088 6.78395 4.03088C2.98742 4.03088 0 6.7178 0 10.99ZM18.0953 4.03088C14.2449 4.03088 11.5553 6.89802 11.5553 10.99C11.5553 15.082 14.2378 18 18.0953 18C21.9528 18 24.6576 15.1074 24.6576 10.99C24.6576 6.87256 21.9782 4.03088 18.0953 4.03088ZM18.0953 14.8539C16.2565 14.8539 15.2329 13.2472 15.2329 10.9971C15.2329 8.74699 16.2565 7.15968 18.0953 7.15968C19.9341 7.15968 20.9546 8.76633 20.9546 10.9971C20.9546 13.2279 19.9595 14.8539 18.0953 14.8539ZM35.1924 5.439C34.307 4.52876 33.0883 4.01968 31.8197 4.03088C27.9368 4.03088 25.7422 7.17801 25.7422 10.99C25.7422 14.802 27.9368 18 31.8197 18C33.0862 18 34.2999 17.493 35.1924 16.5919V17.6946H38.8954V0H35.1924V5.439ZM35.1924 13.2177C34.7024 14.1626 33.7266 14.7551 32.6634 14.7511C30.6447 14.7511 29.4544 13.1434 29.4544 10.99C29.4544 8.83659 30.6548 7.25539 32.6634 7.25539C33.7327 7.25742 34.7095 7.86119 35.1924 8.81724V13.2177ZM46.3055 4.03088C44.5185 4.03088 42.8078 4.5196 41.835 5.13355V8.34787C42.9196 7.63211 44.1882 7.24928 45.4872 7.24521C47.3768 7.24521 48.4777 8.06482 48.4777 9.3701V10.1123C47.939 9.72646 46.6358 9.31817 45.4872 9.31817C42.5506 9.31817 40.3306 11.0572 40.3306 13.6158C40.3306 16.3801 42.5516 17.9389 45.2595 17.9389C46.7131 17.9389 48.0416 17.4278 48.4685 16.9941V17.7108H52.0435V9.14814C52.0526 5.89818 49.9577 4.03088 46.3055 4.03088ZM48.4777 14.0597C48.1565 14.7765 47.1746 15.2133 46.1256 15.2133C44.9515 15.2133 43.7511 14.7246 43.7511 13.5741C43.7511 12.4236 44.9515 11.9379 46.1256 11.9379C47.1746 11.9379 48.1443 12.3716 48.4777 13.0884V14.0587V14.0597Z" fill="#FFFFFF"></path>
</svg>