<svg xmlns:xlink="http://www.w3.org/1999/xlink" width="135" height="40" viewBox="0 0 135 40" fill="none" xmlns="http://www.w3.org/2000/svg" id="svg-7681283_6447">
<path d="M20.9224 0C9.85695 0 0.88623 8.95446 0.88623 20.0001C0.88623 31.0463 9.85695 40 20.9224 40C31.989 40 40.9587 31.0463 40.9587 20.0001C40.9587 8.95518 31.989 0.000955316 20.9221 0.000955316L20.9224 0ZM30.1108 28.8459C29.7519 29.4334 28.9815 29.6197 28.3929 29.2591C23.6887 26.3907 17.7666 25.7411 10.7922 27.3317C10.1201 27.4846 9.45021 27.0642 9.29709 26.3931C9.14324 25.722 9.56266 25.0533 10.2364 24.9004C17.8687 23.1598 24.4155 23.9093 29.6969 27.1311C30.2855 27.4917 30.4721 28.2584 30.1108 28.8459ZM32.5632 23.4001C32.111 24.1338 31.1492 24.3655 30.4147 23.9141C25.029 20.6096 16.8193 19.6526 10.4491 21.5828C9.62295 21.8319 8.75038 21.3672 8.49964 20.5439C8.25081 19.7193 8.71665 18.8499 9.54137 18.5991C16.8179 16.3952 25.864 17.4628 32.0488 21.2566C32.7833 21.708 33.0154 22.6681 32.5632 23.4003V23.4001ZM32.7737 17.7293C26.3162 13.9006 15.6621 13.5486 9.49663 15.4165C8.50658 15.7162 7.45959 15.1583 7.15956 14.17C6.85953 13.1813 7.41796 12.1369 8.40872 11.8364C15.4862 9.69173 27.2517 10.1061 34.6864 14.5118C35.5788 15.0394 35.8707 16.1874 35.3419 17.0752C34.8156 17.9641 33.6623 18.2571 32.7747 17.7293H32.7737ZM55.3979 18.463C51.9383 17.6395 51.3234 17.0616 51.3234 15.8471C51.3234 14.6998 52.4048 13.9276 54.015 13.9276C55.575 13.9276 57.1206 14.514 58.7427 15.721C58.7906 15.7575 58.8528 15.7721 58.9126 15.7626C58.9748 15.7535 59.0275 15.7203 59.0633 15.6704L60.7525 13.2935C60.8219 13.1956 60.8027 13.0607 60.7094 12.9859C58.7786 11.44 56.6062 10.6884 54.0653 10.6884C50.3304 10.6884 47.7201 12.926 47.7201 16.1275C47.7201 19.5607 49.9716 20.7763 53.8619 21.7147C57.1708 22.4758 57.7307 23.1135 57.7307 24.2532C57.7307 25.5166 56.6014 26.3024 54.783 26.3024C52.7637 26.3024 51.1152 25.6217 49.2729 24.0311C49.2275 23.9905 49.1653 23.9738 49.1078 23.9762C49.0456 23.9809 48.9906 24.0096 48.9523 24.055L47.0574 26.3048C46.9784 26.4003 46.988 26.5388 47.0789 26.62C49.2227 28.5307 51.8593 29.5385 54.7065 29.5385C58.7308 29.5385 61.3315 27.3437 61.3315 23.9451C61.3387 21.0775 59.6184 19.4893 55.4051 18.4661L55.3979 18.463ZM70.4376 15.0573C68.6935 15.0573 67.2627 15.7432 66.0808 17.1487V15.5667C66.0808 15.4418 65.9803 15.3401 65.8559 15.3401H62.7575C62.6331 15.3401 62.5326 15.4418 62.5326 15.5667V33.1449C62.5326 33.2691 62.6331 33.3717 62.7575 33.3717H65.8559C65.9803 33.3717 66.0808 33.2691 66.0808 33.1449V27.5968C67.2627 28.9176 68.6935 29.5648 70.4376 29.5648C73.6796 29.5648 76.9622 27.0738 76.9622 22.3118C76.967 17.5488 73.6844 15.057 70.44 15.057L70.4376 15.0573ZM73.359 22.3118C73.359 24.7356 71.8636 26.4289 69.7199 26.4289C67.6024 26.4289 66.0042 24.6592 66.0042 22.3118C66.0042 19.9641 67.6024 18.1948 69.7199 18.1948C71.8277 18.1946 73.359 19.9256 73.359 22.3115V22.3118ZM85.3721 15.0573C81.197 15.0573 77.9264 18.2662 77.9264 22.3636C77.9264 26.417 81.1755 29.5911 85.3218 29.5911C89.5112 29.5911 92.7915 26.3931 92.7915 22.3118C92.7915 18.2442 89.5328 15.0578 85.3721 15.0578V15.0573ZM85.3721 26.4528C83.1518 26.4528 81.477 24.6712 81.477 22.3106C81.477 19.9392 83.0944 18.2184 85.3218 18.2184C87.5565 18.2184 89.2409 19.9994 89.2409 22.3624C89.2409 24.7333 87.6139 26.4528 85.3721 26.4528ZM101.706 15.3401H98.2968V11.8613C98.2968 11.7366 98.1963 11.6349 98.0719 11.6349H94.9735C94.8491 11.6349 94.7462 11.7366 94.7462 11.8613V15.3401H93.258C93.1336 15.3401 93.0331 15.4418 93.0331 15.5667V18.2242C93.0331 18.3488 93.1336 18.4508 93.258 18.4508H94.7462V25.3279C94.7462 28.1055 96.1315 29.5146 98.8662 29.5146C99.9764 29.5146 100.897 29.2854 101.766 28.7934C101.838 28.7552 101.881 28.6787 101.881 28.5975V26.0659C101.881 25.9895 101.84 25.9155 101.773 25.8749C101.706 25.8319 101.622 25.8295 101.553 25.8653C100.957 26.1639 100.381 26.3024 99.7347 26.3024C98.7418 26.3024 98.2968 25.851 98.2968 24.8431V18.452H101.706C101.831 18.452 101.931 18.3503 101.931 18.2254V15.5681C101.936 15.4432 101.835 15.3415 101.709 15.3415L101.706 15.3401ZM113.583 15.3537V14.9264C113.583 13.6694 114.066 13.1089 115.148 13.1089C115.794 13.1089 116.313 13.2369 116.894 13.4304C116.966 13.4528 117.04 13.4416 117.098 13.3989C117.157 13.3561 117.191 13.2876 117.191 13.215V10.6093C117.191 10.5097 117.129 10.4216 117.031 10.3922C116.418 10.21 115.633 10.023 114.456 10.023C111.597 10.023 110.083 11.6313 110.083 14.6723V15.3267H108.594C108.47 15.3267 108.367 15.4284 108.367 15.5531V18.2242C108.367 18.3488 108.47 18.4508 108.594 18.4508H110.083V29.0561C110.083 29.1827 110.185 29.283 110.31 29.283H113.406C113.533 29.283 113.633 29.1827 113.633 29.0561V18.4515H116.526L120.957 29.0561C120.454 30.169 119.959 30.3911 119.284 30.3911C118.739 30.3911 118.162 30.2287 117.576 29.9063C117.521 29.8777 117.454 29.8729 117.397 29.8896C117.337 29.9111 117.287 29.9541 117.263 30.0114L116.212 32.3113C116.162 32.4212 116.205 32.5478 116.31 32.6051C117.406 33.1974 118.394 33.4506 119.617 33.4506C121.904 33.4506 123.17 32.3854 124.283 29.5242L129.656 15.6632C129.685 15.5935 129.675 15.5146 129.632 15.4528C129.592 15.3914 129.522 15.3544 129.448 15.3544H126.223C126.125 15.3544 126.039 15.4158 126.008 15.5063L122.703 24.9243L119.086 15.5001C119.052 15.4124 118.969 15.3544 118.875 15.3544H113.583V15.3537ZM106.697 15.3401H103.599C103.474 15.3401 103.371 15.4418 103.371 15.5667V29.0561C103.371 29.1827 103.474 29.283 103.599 29.283H106.697C106.822 29.283 106.924 29.1827 106.924 29.0561V15.5677C106.924 15.4428 106.824 15.341 106.697 15.341V15.3401ZM105.166 9.19759C103.938 9.19759 102.943 10.1892 102.943 11.4142C102.943 12.6398 103.938 13.6327 105.166 13.6327C106.393 13.6327 107.386 12.6398 107.386 11.4142C107.386 10.1895 106.391 9.19759 105.166 9.19759ZM132.302 19.6775C131.077 19.6775 130.123 18.6947 130.123 17.5012C130.123 16.3078 131.089 15.3138 132.314 15.3138C133.539 15.3138 134.494 16.2963 134.494 17.4888C134.494 18.6823 133.527 19.6775 132.302 19.6775ZM132.314 15.5302C131.197 15.5302 130.352 16.4162 130.352 17.5012C130.352 18.5858 131.192 19.4599 132.302 19.4599C133.42 19.4599 134.264 18.5745 134.264 17.4888C134.264 16.4043 133.425 15.5302 132.314 15.5302ZM132.798 17.7126L133.415 18.5743H132.893L132.338 17.7838H131.862V18.5743H131.427V16.2901H132.446C132.98 16.2901 133.329 16.5617 133.329 17.0188C133.331 17.3933 133.113 17.6221 132.8 17.7126H132.798ZM132.429 16.6821H131.862V17.4045H132.429C132.712 17.4045 132.881 17.2662 132.881 17.0429C132.881 16.8079 132.712 16.6821 132.429 16.6821Z" fill="#FFFFFF"></path>
</svg>