<svg xmlns:xlink="http://www.w3.org/1999/xlink" width="179" height="40" fill="none" xmlns="http://www.w3.org/2000/svg" id="svg978456660_4899"><g clip-path="url(#svg978456660_4899_a)" fill="#FFFFFF"><path d="M15.092 14.555c0 1.748-.74 3.294-1.95 4.504-1.344 1.344-3.293 1.68-3.293 2.823 0 1.547 2.487 1.076 4.874 3.463 1.58 1.58 2.554 3.664 2.554 6.084 0 4.773-3.832 8.571-8.638 8.571C3.832 40 0 36.205 0 31.432c0-2.42.975-4.504 2.555-6.084 2.386-2.387 4.874-1.916 4.874-3.462 0-1.143-1.95-1.48-3.295-2.824-1.21-1.21-1.95-2.756-1.95-4.571 0-3.496 2.858-6.32 6.354-6.32.672 0 1.277.101 1.781.101.908 0 1.378-.403 1.378-1.042 0-.37-.168-.84-.168-1.344 0-1.143.975-2.084 2.152-2.084 1.176 0 2.117.975 2.117 2.151 0 1.244-.975 1.815-1.714 2.084-.605.202-1.076.47-1.076 1.076 0 1.14 2.084 2.248 2.084 5.442Zm-.672 16.877c0-3.328-2.454-6.017-5.781-6.017-3.328 0-5.782 2.69-5.782 6.017 0 3.328 2.454 6.017 5.782 6.017 3.327 0 5.781-2.726 5.781-6.017Zm-1.983-16.944c0-2.118-1.714-3.866-3.798-3.866S4.84 12.37 4.84 14.488c0 2.117 1.715 3.865 3.799 3.865 2.084 0 3.798-1.748 3.798-3.866Zm14.756-5.984c1.076 0 1.883.807 1.883 1.815 0 1.009-.774 1.815-1.85 1.815-1.075 0-1.713-.706-2.823-.706-1.109 0-1.916.774-1.916 2.085V24.1c0 .806-.638 1.445-1.445 1.445s-1.412-.639-1.412-1.445V9.849c0-.807.639-1.446 1.412-1.446 1.445 0 1.176 1.378 2.622 1.378 1.445 0 1.882-1.277 3.53-1.277Zm3.127 8.471c0-5.076 3.495-8.74 8.302-8.74 4.403 0 7.899 3.227 7.899 7.63 0 1.043-.672 1.748-1.647 1.748H33.95c-.471 0-.64.169-.64.538 0 .84.673 2.387 1.682 3.395 1.008 1.009 2.386 1.614 4.336 1.614 1.445 0 2.722-.538 3.697-1.244.303-.235.639-.37.975-.37.706 0 1.277.639 1.277 1.311 0 .404-.134.74-.47 1.042-1.412 1.177-3.395 1.815-5.547 1.815-5.21 0-8.94-3.764-8.94-8.74Zm11.898-4.84c-.94-.942-2.15-1.412-3.596-1.412a5.31 5.31 0 0 0-3.765 1.546c-.773.773-1.31 1.781-1.31 2.454 0 .336.2.47.638.47h8.74c.403 0 .604-.134.604-.47 0-.807-.638-1.916-1.31-2.589Zm7.194 4.84c0-5.076 3.495-8.74 8.302-8.74 4.404 0 7.9 3.227 7.9 7.63 0 1.043-.673 1.748-1.648 1.748H53.042c-.47 0-.639.169-.639.538 0 .84.673 2.387 1.681 3.395 1.008 1.009 2.387 1.614 4.336 1.614 1.445 0 2.723-.538 3.698-1.244.302-.235.638-.37.974-.37.706 0 1.278.639 1.278 1.311 0 .404-.135.74-.47 1.042-1.413 1.177-3.396 1.815-5.547 1.815-5.21 0-8.941-3.764-8.941-8.74Zm11.899-4.84c-.941-.942-2.151-1.412-3.597-1.412-1.445 0-2.79.571-3.764 1.546-.774.773-1.311 1.781-1.311 2.454 0 .336.201.47.638.47h8.74c.403 0 .605-.134.605-.47 0-.807-.639-1.916-1.311-2.589Zm21.143 13.411a1.435 1.435 0 0 1-1.446-1.445v-9.143c0-2.386-1.882-4.202-4.302-4.202s-4.336 1.85-4.336 4.202v9.143c0 .807-.639 1.445-1.446 1.445-.806 0-1.411-.638-1.411-1.445V9.815c0-.773.638-1.412 1.378-1.412 1.411 0 1.344 1.278 2.084 1.278s1.748-1.446 4.37-1.446c3.663 0 6.52 3.06 6.52 6.723v9.143c0 .807-.638 1.445-1.411 1.445Zm19.294 0a1.434 1.434 0 0 1-1.445-1.445v-9.143c0-2.387-1.883-4.202-4.303-4.202s-4.336 1.849-4.336 4.202v9.143c0 .807-.639 1.445-1.445 1.445-.807 0-1.412-.638-1.412-1.445V1.445C88.807.64 89.445 0 90.219 0c.773 0 1.445.639 1.445 1.445v7.429c0 .403.168.639.605.639.74 0 1.748-1.278 4.37-1.278 3.664 0 6.521 3.06 6.521 6.723v9.143c0 .807-.639 1.445-1.412 1.445Zm5.341-8.571c0-4.874 3.899-8.74 8.807-8.74 4.907 0 8.807 3.866 8.807 8.74 0 4.874-3.9 8.74-8.807 8.74-4.908 0-8.807-3.866-8.807-8.74Zm14.76 0c0-3.395-2.521-6.185-5.95-6.185-3.428 0-5.916 2.79-5.916 6.185 0 3.395 2.521 6.185 5.916 6.185 3.395 0 5.95-2.79 5.95-6.185Zm8.198-8.572c.807 0 1.445.639 1.445 1.446v9.143c0 2.386 1.883 4.201 4.303 4.201s4.336-1.849 4.336-4.201V9.849c0-.807.639-1.446 1.445-1.446.807 0 1.412.639 1.412 1.446v14.285c0 .773-.638 1.412-1.378 1.412-1.412 0-1.344-1.277-2.084-1.277-.739 0-1.748 1.445-4.37 1.445-3.664 0-6.521-3.059-6.521-6.722V9.849c.004-.807.639-1.446 1.412-1.446Zm18.017 16.067c-.639-.403-1.076-.806-1.076-1.58 0-.772.572-1.31 1.278-1.31.84 0 1.21.504 1.916.874.874.504 1.882.773 3.126.773 2.285 0 3.428-1.042 3.428-2.32 0-1.814-1.68-2.15-3.966-2.756-2.824-.74-5.546-1.58-5.546-4.84 0-2.89 2.218-5.076 6.151-5.076 1.546 0 2.991.404 4.134 1.11.404.235.807.74.807 1.31 0 .74-.605 1.379-1.378 1.379-.504 0-.908-.337-1.412-.673-.504-.336-1.244-.638-2.252-.638-2.252 0-3.227.974-3.227 2.285 0 1.715 1.647 2.118 4 2.69 2.756.672 5.479 1.546 5.479 4.873 0 2.891-2.151 5.143-6.286 5.143-2.016 0-3.832-.403-5.176-1.243Zm14.151-7.495c0-5.076 3.496-8.74 8.303-8.74 4.403 0 7.899 3.227 7.899 7.63 0 1.043-.672 1.748-1.647 1.748h-10.925c-.47 0-.638.169-.638.538 0 .84.672 2.387 1.68 3.395 1.009 1.009 2.387 1.614 4.336 1.614 1.446 0 2.723-.538 3.698-1.244.302-.235.639-.37.975-.37.706 0 1.277.639 1.277 1.311 0 .404-.134.74-.471 1.042-1.411 1.177-3.394 1.815-5.546 1.815-5.206 0-8.941-3.764-8.941-8.74Zm11.903-4.84c-.942-.942-2.152-1.412-3.597-1.412-1.445 0-2.79.571-3.765 1.546-.773.773-1.311 1.781-1.311 2.454 0 .336.202.47.639.47h8.739c.404 0 .606-.134.606-.47 0-.807-.639-1.916-1.311-2.589Z" fill="#FFFFFF"></path></g><defs><clipPath id="svg978456660_4899_a"><path fill="#fff" d="M0 0h178.417v40H0z"></path></clipPath></defs></svg>