<svg xmlns:xlink="http://www.w3.org/1999/xlink" width="131" height="36" viewBox="0 0 131 36" fill="none" xmlns="http://www.w3.org/2000/svg" id="svg28074636_2300">
<path fill-rule="evenodd" clip-rule="evenodd" d="M82.6507 10.487C84.3051 8.76755 86.0876 7.94321 88.4 7.94321C89.2626 7.94321 90.4121 8.05605 91.7337 8.28748L88.3426 12.7439C88.0557 12.6884 87.6522 12.6311 87.1931 12.6311C84.6646 12.6311 82.9968 14.4021 82.9968 17.2022V29.4315H78.1101V8.34486H82.6507V10.487ZM124.901 8.34295H130.535L122.535 18.9848L130.533 29.4315H124.726L119.668 22.7603L114.609 29.4315H108.861L116.81 18.9695L108.861 8.34295H114.496L119.698 15.2207L124.901 8.34295ZM27.5301 4.13484C27.6548 3.96682 27.7871 3.78857 27.9285 3.59964C29.1928 1.88593 31.2603 0.856934 33.3872 0.856934H42.8719V29.4296H18.7862C17.3555 29.4296 16.9842 29.9347 15.8151 31.5251C15.6229 31.7865 15.4091 32.0773 15.1656 32.3999C13.844 34.1137 11.7745 35.1426 9.64767 35.1426H0.220337V6.56994H24.2486C25.7225 6.56994 26.1839 5.94836 27.5301 4.13484ZM25.3388 22.0584H35.3993V8.34295H26.9493C25.4666 8.34295 24.9817 8.97034 23.435 10.9719C23.3636 11.0642 23.29 11.1595 23.2139 11.2578C21.8923 12.9715 19.8802 14.0005 17.696 14.0005H7.63558V27.7159H16.141C17.5988 27.7159 18.0191 27.1533 19.3652 25.3515C19.5062 25.1628 19.6573 24.9604 19.8209 24.7437C21.1425 22.9726 23.1546 22.0584 25.3388 22.0584ZM75.1206 8.91482C75.1206 11.7149 73.6288 13.8303 71.5 15.0295C74.6042 16.5137 75.8111 18.8012 75.8111 21.4291C75.8111 25.8855 72.3607 29.4296 67.3611 29.4296H53.5654V0.856934H67.3611C71.9591 0.856934 75.1206 4.80077 75.1206 8.91482ZM66.9595 5.31335H58.4521V12.742H66.6726C68.4532 12.742 70.3506 11.2578 70.3506 9.08505C70.3506 7.31396 69.0863 5.31335 66.9595 5.31335ZM58.4502 24.9713H66.6707C68.6847 24.9713 70.9244 23.2002 70.9244 21.0275C70.9244 19.0842 69.1418 17.1984 66.9576 17.1984H58.4502V24.9713ZM99.8968 25.3712C101.622 25.3712 103.173 24.6291 103.978 23.3706H109.211C108.119 27.7142 104.325 29.8276 100.013 29.8276C93.8625 29.8276 89.8976 25.7117 89.8976 18.9123C89.8976 12.1129 93.9217 7.94147 99.8987 7.94147C105.876 7.94147 109.842 12.3424 109.842 18.7421C109.842 19.4861 109.785 19.8858 109.556 20.7427H94.9546C94.9546 23.5428 97.1962 25.3712 99.8968 25.3712ZM104.611 16.686C104.669 14.1135 102.599 12.3998 99.8968 12.3998C97.1962 12.3998 95.01 14.1728 95.0119 16.686H104.611Z" fill="#FFFFFF"></path>
</svg>