<svg xmlns:xlink="http://www.w3.org/1999/xlink" width="59" height="59" viewBox="0 0 59 59" fill="none" xmlns="http://www.w3.org/2000/svg" id="svg1070585553_2196">
<g clip-path="url(#svg1070585553_2196_clip0_2594_38402)" fill="none">
<rect x="0.63623" y="11.8149" width="54.2821" height="40.7115" rx="4.5235" transform="rotate(-5.37628 0.63623 11.8149)" fill="url(&quot;#svg1070585553_2196_paint0_radial_2594_38402&quot;)"></rect>
<rect x="1.27197" y="18.5704" width="54.2821" height="9.04701" transform="rotate(-5.37628 1.27197 18.5704)" fill="url(&quot;#svg1070585553_2196_paint1_linear_2594_38402&quot;)"></rect>
<rect x="7.0459" y="31.6573" width="31.6645" height="9.04701" transform="rotate(-5.37628 7.0459 31.6573)" fill="#FFFFFF"></rect>
<rect x="46.1758" y="37.062" width="6.78526" height="6.78526" rx="2.26175" transform="rotate(-5.37628 46.1758 37.062)" fill="#FFC612"></rect>
<path d="M9.93447 38.2009C11.7473 37.2765 16.4512 33.2153 15.5838 30.9396C14.7163 28.6639 12.7245 38.8687 16.3117 36.3238C17.2118 35.6853 17.8605 34.2023 18.6277 33.2875C18.6567 33.2529 19.6381 32.1793 19.6295 32.7043C19.6157 33.5533 18.3065 37.0393 19.635 36.0456C20.7658 35.1998 21.8727 34.244 23.0542 33.5439C24.0929 32.9284 22.6321 34.9353 23.445 34.8588C24.9929 34.7131 26.389 35.9701 27.8429 35.3797C28.8129 34.9858 29.9297 34.1098 30.9419 33.9749C32.5533 33.7602 35.3318 34.1145 36.7146 33.0923" stroke="url(&quot;#svg1070585553_2196_paint2_linear_2594_38402&quot;)" stroke-width="2.26175px" stroke-linecap="round" fill="none"></path>
</g>
<defs>
<radialGradient id="svg1070585553_2196_paint0_radial_2594_38402" cx="0" cy="0" r="1" gradientUnits="userSpaceOnUse" gradientTransform="translate(27.7773 32.1706) rotate(90) scale(20.3558 27.141)">
<stop stop-color="#D9E2E8"></stop>
<stop offset="1" stop-color="#8A9195"></stop>
</radialGradient>
<linearGradient id="svg1070585553_2196_paint1_linear_2594_38402" x1="1.27197" y1="23.0939" x2="55.554" y2="23.0939" gradientUnits="userSpaceOnUse">
<stop stop-color="#33185D"></stop>
<stop offset="0.5" stop-color="#7344BE"></stop>
<stop offset="1" stop-color="#33185D"></stop>
</linearGradient>
<linearGradient id="svg1070585553_2196_paint2_linear_2594_38402" x1="9.93447" y1="38.2009" x2="36.9561" y2="35.6579" gradientUnits="userSpaceOnUse">
<stop stop-color="#956ED4"></stop>
<stop offset="1" stop-color="#A8AEBC"></stop>
</linearGradient>
<clipPath id="svg1070585553_2196_clip0_2594_38402">
<rect width="54" height="54" fill="white" transform="translate(0 5.0596) rotate(-5.37628)"></rect>
</clipPath>
<radialGradient id="svg1070585553_2196_paint0_radial_2594_38402" cx="0" cy="0" r="1" gradientUnits="userSpaceOnUse" gradientTransform="translate(27.7773 32.1706) rotate(90) scale(20.3558 27.141)">
<stop stop-color="#D9E2E8"></stop>
<stop offset="1" stop-color="#8A9195"></stop>
</radialGradient><linearGradient id="svg1070585553_2196_paint1_linear_2594_38402" x1="1.27197" y1="23.0939" x2="55.554" y2="23.0939" gradientUnits="userSpaceOnUse">
<stop stop-color="#33185D"></stop>
<stop offset="0.5" stop-color="#7344BE"></stop>
<stop offset="1" stop-color="#33185D"></stop>
</linearGradient><linearGradient id="svg1070585553_2196_paint2_linear_2594_38402" x1="9.93447" y1="38.2009" x2="36.9561" y2="35.6579" gradientUnits="userSpaceOnUse">
<stop stop-color="#956ED4"></stop>
<stop offset="1" stop-color="#A8AEBC"></stop>
</linearGradient><radialGradient id="svg1070585553_2196_paint0_radial_2594_38402" cx="0" cy="0" r="1" gradientUnits="userSpaceOnUse" gradientTransform="translate(27.7773 32.1706) rotate(90) scale(20.3558 27.141)">
<stop stop-color="#D9E2E8"></stop>
<stop offset="1" stop-color="#8A9195"></stop>
</radialGradient><linearGradient id="svg1070585553_2196_paint1_linear_2594_38402" x1="1.27197" y1="23.0939" x2="55.554" y2="23.0939" gradientUnits="userSpaceOnUse">
<stop stop-color="#33185D"></stop>
<stop offset="0.5" stop-color="#7344BE"></stop>
<stop offset="1" stop-color="#33185D"></stop>
</linearGradient><linearGradient id="svg1070585553_2196_paint2_linear_2594_38402" x1="9.93447" y1="38.2009" x2="36.9561" y2="35.6579" gradientUnits="userSpaceOnUse">
<stop stop-color="#956ED4"></stop>
<stop offset="1" stop-color="#A8AEBC"></stop>
</linearGradient></defs>
</svg>