<svg xmlns="http://www.w3.org/2000/svg" xmlns:xlink="http://www.w3.org/1999/xlink" style="width: 100%; height: 100%" viewBox="0 0 24 18" preserveAspectRatio="none" width="24" height="18"><defs><svg width="24" height="18" viewBox="0 0 24 18" fill="none" xmlns="http://www.w3.org/2000/svg" id="svg56229666_943">
<path d="M23.7609 4.41221C23.7609 4.41221 23.5266 2.75752 22.8047 2.03096C21.8906 1.07471 20.8688 1.07002 20.4 1.01377C17.0438 0.770019 12.0047 0.77002 12.0047 0.77002H11.9953C11.9953 0.77002 6.95625 0.770019 3.6 1.01377C3.13125 1.07002 2.10938 1.07471 1.19531 2.03096C0.473438 2.75752 0.24375 4.41221 0.24375 4.41221C0.24375 4.41221 0 6.35752 0 8.29814V10.1169C0 12.0575 0.239062 14.0028 0.239062 14.0028C0.239062 14.0028 0.473437 15.6575 1.19062 16.3841C2.10469 17.3403 3.30469 17.3075 3.83906 17.4106C5.76094 17.5935 12 17.6497 12 17.6497C12 17.6497 17.0438 17.6403 20.4 17.4013C20.8688 17.345 21.8906 17.3403 22.8047 16.3841C23.5266 15.6575 23.7609 14.0028 23.7609 14.0028C23.7609 14.0028 24 12.0622 24 10.1169V8.29814C24 6.35752 23.7609 4.41221 23.7609 4.41221ZM9.52031 12.3247V5.57939L16.0031 8.96377L9.52031 12.3247Z" fill="#FFFFFF"></path>
</svg></defs><use href="#svg56229666_943"></use></svg>