<svg xmlns:xlink="http://www.w3.org/1999/xlink" width="22" height="23" viewBox="0 0 22 23" fill="none" xmlns="http://www.w3.org/2000/svg" id="svg-1109049324_819">
<path fill-rule="evenodd" clip-rule="evenodd" d="M2.73613 5.55966C4.17821 5.55966 5.34725 4.39061 5.34725 2.94853C5.34725 1.50644 4.17821 0.337402 2.73613 0.337402C1.29404 0.337402 0.125 1.50644 0.125 2.94853C0.125 4.39061 1.29404 5.55966 2.73613 5.55966ZM21.9279 22.0866V13.85C21.9279 11.4678 21.5666 9.56046 20.3665 8.46886C19.4517 7.63436 18.1859 7.06891 15.7908 7.18764C13.6896 7.29355 12.4349 9.12656 12.2034 9.49897L12.1394 7.49684H7.82422V22.0857H12.3589V14.4411L12.3512 14.213C12.3879 13.5938 12.487 12.7447 12.9107 12.099C13.4231 11.3183 14.4208 11.0484 15.468 11.1594C17.0293 11.3209 17.3659 12.9625 17.3659 13.7296V22.0874L21.9279 22.0866ZM0.44873 7.49779H4.97058V22.0866H0.44873V7.49779Z" fill="#FFFFFF"></path>
</svg>