<svg xmlns="http://www.w3.org/2000/svg" xmlns:xlink="http://www.w3.org/1999/xlink" style="width: 100%; height: 100%" viewBox="0 0 100 36" preserveAspectRatio="none" width="100" height="36"><defs><svg width="100" height="36" viewBox="0 0 100 36" fill="none" xmlns="http://www.w3.org/2000/svg" id="svg-1614594213_4694">
<path d="M84.4282 35.1429C84.2778 35.1429 84.1558 35.0217 84.1558 34.8724V2.30293C84.1558 2.17485 84.2464 2.06435 84.3727 2.03824L90.0615 0.862951C90.2307 0.828002 90.3895 0.956159 90.3895 1.12764V34.8724C90.3895 35.0217 90.2675 35.1429 90.1171 35.1429H84.4282Z" fill="#FFFFFF"></path>
<path d="M11.3088 35.1429C9.14593 35.1429 7.21478 34.6112 5.51536 33.5476C3.81596 32.4841 2.47188 31.0295 1.48312 29.1839C0.494374 27.3385 0 25.2428 0 22.8967C0 20.5508 0.494374 18.4706 1.48312 16.6564C2.47188 14.8109 3.81596 13.372 5.51536 12.3397C7.21478 11.2762 9.14593 10.7445 11.3088 10.7445C13.0391 10.7445 14.5532 11.0729 15.8509 11.7298C16.8911 12.2563 17.7725 12.9537 18.495 13.8218C18.6589 14.0187 19.0025 13.9074 19.0025 13.6506V2.25111C19.0025 2.12762 19.0888 2.02108 19.2089 1.99591L24.6228 0.862744C24.7839 0.829047 24.935 0.95261 24.935 1.11794V34.3192C24.935 34.4632 24.8189 34.5798 24.6758 34.5798H19.8647C19.7409 34.5798 19.6341 34.4915 19.6104 34.3693L19.1174 31.838C19.0737 31.6142 18.7816 31.5478 18.6368 31.7232C17.9459 32.5612 17.0791 33.31 16.0362 33.9698C14.8312 34.7518 13.2554 35.1429 11.3088 35.1429ZM12.5602 29.8878C14.4759 29.8878 16.0362 29.2466 17.2413 27.9641C18.4772 26.6504 19.0952 24.9769 19.0952 22.9436C19.0952 20.9104 18.4772 19.2527 17.2413 17.9701C16.0362 16.6564 14.4759 15.9995 12.5602 15.9995C10.6754 15.9995 9.11503 16.6407 7.87909 17.9232C6.64316 19.2057 6.02519 20.8635 6.02519 22.8967C6.02519 24.9299 6.64316 26.6034 7.87909 27.9172C9.11503 29.2309 10.6754 29.8878 12.5602 29.8878Z" fill="#FFFFFF"></path>
<path d="M40.7165 35.1428C38.2527 35.1428 36.068 34.6313 34.1625 33.6084C32.2571 32.5854 30.7622 31.1468 29.6781 29.2927C28.594 27.4386 28.0519 25.2967 28.0519 22.8672C28.0519 20.4056 28.5775 18.2157 29.6289 16.2977C30.7131 14.3796 32.1914 12.8931 34.064 11.8381C35.9694 10.7512 38.2033 10.2078 40.7658 10.2078C43.1641 10.2078 45.2831 10.7192 47.1227 11.7422C48.9625 12.7652 50.3916 14.1718 51.4099 15.962C52.4613 17.7202 52.9869 19.6864 52.9869 21.8601C52.9869 22.2117 52.9704 22.5794 52.9376 22.963C52.9376 23.2703 52.9271 23.5878 52.9059 23.9156C52.897 24.0546 52.777 24.1618 52.6329 24.1618H34.6055C34.4459 24.1618 34.3192 24.2927 34.3349 24.4463C34.5111 26.1654 35.16 27.525 36.2815 28.5255C37.4971 29.5804 38.9589 30.1079 40.6673 30.1079C41.9485 30.1079 43.0162 29.8361 43.8703 29.2927C44.7061 28.7506 45.3376 28.0665 45.7652 27.2407C45.8131 27.1476 45.9105 27.0869 46.0179 27.0869H51.8787C52.0629 27.0869 52.1953 27.2582 52.1375 27.4273C51.6686 28.7976 50.9334 30.0587 49.9316 31.2107C48.8804 32.4255 47.5663 33.3846 45.9893 34.0879C44.4453 34.7912 42.6878 35.1428 40.7165 35.1428ZM40.7658 15.1948C39.2218 15.1948 37.8584 15.6263 36.6757 16.4895C35.5658 17.2695 34.832 18.4438 34.4743 20.0121C34.4374 20.1746 34.5677 20.3257 34.7399 20.3257H46.2878C46.4466 20.3257 46.5731 20.1961 46.5572 20.0434C46.4084 18.6088 45.8248 17.456 44.8066 16.5854C43.7226 15.6583 42.3757 15.1948 40.7658 15.1948Z" fill="#FFFFFF"></path>
<path d="M68.7685 35.1428C66.3046 35.1428 64.1199 34.6313 62.2144 33.6084C60.3089 32.5854 58.8143 31.1468 57.7301 29.2927C56.6459 27.4386 56.1039 25.2967 56.1039 22.8672C56.1039 20.4056 56.6295 18.2157 57.6807 16.2977C58.7649 14.3796 60.2432 12.8931 62.1159 11.8381C64.0213 10.7512 66.2554 10.2078 68.8179 10.2078C71.216 10.2078 73.335 10.7192 75.1748 11.7422C77.0146 12.7652 78.4436 14.1718 79.4621 15.962C80.5134 17.7202 81.0389 19.6864 81.0389 21.8601C81.0389 22.2117 81.0226 22.5794 80.9897 22.963C80.9897 23.2703 80.9791 23.5878 80.9581 23.9156C80.9492 24.0546 80.8291 24.1618 80.685 24.1618H62.6574C62.4979 24.1618 62.3712 24.2927 62.3869 24.4463C62.5631 26.1654 63.212 27.525 64.3334 28.5255C65.549 29.5804 67.011 30.1079 68.7192 30.1079C70.0005 30.1079 71.0683 29.8361 71.9224 29.2927C72.7581 28.7506 73.3897 28.0665 73.8171 27.2407C73.8653 27.1476 73.9624 27.0869 74.07 27.0869H79.9308C80.115 27.0869 80.2473 27.2582 80.1895 27.4273C79.7207 28.7976 78.9854 30.0587 77.9837 31.2107C76.9324 32.4255 75.6183 33.3846 74.0414 34.0879C72.4973 34.7912 70.7397 35.1428 68.7685 35.1428ZM68.8179 15.1948C67.2737 15.1948 65.9104 15.6263 64.7277 16.4895C63.6178 17.2695 62.884 18.4438 62.5263 20.0121C62.4893 20.1746 62.6196 20.3257 62.7918 20.3257H74.3398C74.4985 20.3257 74.6251 20.1961 74.6093 20.0434C74.4604 18.6088 73.8769 17.456 72.8587 16.5854C71.7745 15.6583 70.4276 15.1948 68.8179 15.1948Z" fill="#FFFFFF"></path>
<path d="M96.6232 35.1428C98.3446 35.1428 99.7401 33.7473 99.7401 32.0259C99.7401 30.3045 98.3446 28.9091 96.6232 28.9091C94.9018 28.9091 93.5063 30.3045 93.5063 32.0259C93.5063 33.7473 94.9018 35.1428 96.6232 35.1428Z" fill="#FFFFFF"></path>
</svg></defs><use href="#svg-1614594213_4694"></use></svg>