<svg xmlns:xlink="http://www.w3.org/1999/xlink" width="116" height="40" viewBox="0 0 116 40" fill="none" xmlns="http://www.w3.org/2000/svg" id="svg462097093_3545">
<path fill-rule="evenodd" clip-rule="evenodd" d="M2.40664 1.72558L24.5397 0.0909339C27.2583 -0.142397 27.957 0.0149348 29.6663 1.25759L36.7302 6.23486L36.9076 6.36286L36.9138 6.3674C37.937 7.11855 38.2849 7.37396 38.2849 8.25617V35.5532C38.2849 37.2638 37.6622 38.2758 35.4889 38.4305L9.78655 39.9865C8.15457 40.0638 7.37725 39.8305 6.52259 38.7412L1.31998 31.9759C0.386662 30.7306 0 29.7986 0 28.7093V4.44555C0 3.0469 0.621326 1.88025 2.40664 1.72558ZM6.60126 7.01352C7.79324 7.98284 8.26924 7.95084 10.3679 7.80951L10.6399 7.79085L32.6129 6.46819C33.0796 6.46819 32.6916 6.00287 32.5356 5.9242L28.8863 3.28023C28.1877 2.73624 27.257 2.11358 25.4704 2.26958L4.19328 3.82422C3.41729 3.90156 3.26263 4.29089 3.57062 4.60288L6.60126 7.01352ZM7.92124 12.1468V35.3199C7.92124 36.5652 8.54123 37.0305 9.93855 36.9532L34.0889 35.5532C35.4863 35.4759 35.6423 34.6199 35.6423 33.6079V10.5895C35.6423 9.57882 35.2556 9.03483 34.3996 9.11216L9.16256 10.5895C8.2319 10.6681 7.92124 11.1348 7.92124 12.1468ZM31.061 14.8694C31.761 14.7894 31.9156 14.0894 31.761 13.3894L26.401 13.7014C25.625 13.7774 25.0037 14.4001 25.1597 15.2574L27.1784 15.4894V26.2213L19.2584 14.0908L13.5118 14.4774C12.4239 14.5561 12.0359 15.5668 12.1919 16.2667L14.1332 16.4241V31.7439L12.7345 32.1319C12.1919 32.2866 12.0359 33.0639 12.1919 33.3759L17.5478 33.0652C19.4904 33.0652 19.4904 31.6652 19.4904 31.6652L17.0825 31.1199V19.5334L24.6944 31.5092L24.695 31.51C25.6252 32.6747 25.936 33.0639 27.1784 33.0639C27.9557 33.0639 28.8863 32.7532 29.897 32.2092V15.1001L31.061 14.8694ZM55.2458 28.3331V28.3344L55.2472 28.3331H55.2458ZM55.2458 28.3331V17.7879H55.4285L63.0337 28.3344H65.4284V12.8359H62.7657V23.3718H62.5831L54.9778 12.8359H52.5739V28.3331H55.2458ZM78.6042 22.4598C78.6042 26.2731 76.4669 28.5718 72.9536 28.5718C69.431 28.5718 67.3044 26.2731 67.3044 22.4598C67.3044 18.6679 69.463 16.3479 72.9536 16.3479C76.4563 16.3479 78.6042 18.6572 78.6042 22.4598ZM70.0337 22.4598C70.0337 24.9198 71.0963 26.3371 72.9536 26.3371C74.8123 26.3371 75.8643 24.9198 75.8643 22.4598C75.8643 20.0105 74.8016 18.5826 72.9536 18.5826C71.0963 18.5826 70.0337 20.0105 70.0337 22.4598ZM81.0375 16.6599V13.7066V13.7053H83.6908V16.6599H86.2041V18.7865H83.6908V24.5545C83.6908 25.7145 84.1855 26.2291 85.3015 26.2291C85.6669 26.2291 85.8698 26.209 86.1771 26.1785L86.2041 26.1758V28.2598C85.8175 28.3358 85.3228 28.3891 84.8082 28.3891C82.1122 28.3891 81.0375 27.4758 81.0375 25.1985V18.7865H79.1802V16.6599H81.0375ZM90.4534 28.3344H87.8001V16.5839H90.4534V28.3344ZM90.7108 13.0399C90.7108 13.9306 90.0014 14.6413 89.1214 14.6413V14.6399C88.2521 14.6399 87.5321 13.9306 87.5321 13.0399C87.5321 12.148 88.2521 11.428 89.1214 11.428C90.0028 11.428 90.7108 12.148 90.7108 13.0399ZM103.381 22.4598C103.381 26.2731 101.244 28.5718 97.732 28.5718C94.2081 28.5718 92.0814 26.2731 92.0814 22.4598C92.0814 18.6679 94.2401 16.3479 97.732 16.3479C101.233 16.3479 103.381 18.6572 103.381 22.4598ZM94.8094 22.4598C94.8094 24.9198 95.8734 26.3371 97.732 26.3371C99.5893 26.3371 100.643 24.9198 100.643 22.4598C100.643 20.0105 99.5787 18.5826 97.732 18.5826C95.8734 18.5826 94.8094 20.0105 94.8094 22.4598ZM107.631 28.3344H104.967V16.5839H107.533V18.4639H107.716C108.275 17.1532 109.456 16.3479 111.208 16.3479C113.828 16.3479 115.257 17.9266 115.257 20.7305V28.3344H112.592V21.3639C112.592 19.5705 111.841 18.6679 110.219 18.6679C108.631 18.6679 107.631 19.7639 107.631 21.4932V28.3344Z" fill="#FFFFFF"></path>
</svg>