<svg xmlns="http://www.w3.org/2000/svg" xmlns:xlink="http://www.w3.org/1999/xlink" style="width: 100%; height: 100%" viewBox="0 0 130 36" preserveAspectRatio="none" width="130" height="36"><defs><svg width="130" height="36" viewBox="0 0 130 36" fill="none" xmlns="http://www.w3.org/2000/svg" id="svg-1402662203_1280">
<path d="M18.1798 32.9329C16.2367 33.2681 14.2594 33.3685 12.214 33.6361L5.97526 15.6898V34.4064C4.03217 34.6072 2.2595 34.875 0.418579 35.1429V0.857178H5.60049L12.6912 20.3106V0.857178H18.1798V32.9329ZM28.9184 13.413C31.0321 13.413 34.2707 13.3125 36.2138 13.3125V18.6695C33.7932 18.6695 30.9639 18.6695 28.9184 18.77V26.7389C32.123 26.5381 35.3275 26.27 38.5659 26.1695V31.3255L23.4637 32.4976V0.857178H38.5659V6.21433H28.9184V13.413ZM58.8498 6.21445H53.1908V30.8573C51.3499 30.8573 49.509 30.8573 47.7366 30.924V6.21445H42.0776V0.857178H58.8501L58.8498 6.21445ZM67.7133 13.0448H75.1793V18.4018H67.7133V30.556H62.3607V0.857178H77.5997V6.21433H67.7133V13.0448ZM86.4632 25.8683C89.5655 25.9351 92.7017 26.1699 95.7359 26.337V31.6272C90.861 31.3257 85.986 31.0248 81.0088 30.924V0.857178H86.4632V25.8683ZM100.338 31.9956C102.077 32.0962 103.918 32.1966 105.69 32.3972V0.857178H100.338V31.9956ZM129.588 0.857178L122.667 17.163L129.588 35.1429C127.542 34.875 125.497 34.5067 123.451 34.1718L119.531 24.2613L115.543 33.3685C113.565 33.0334 111.656 32.9329 109.679 32.6651L116.702 16.962L110.361 0.857178H116.224L119.804 9.86389L123.622 0.857178H129.588V0.857178Z" fill="#FFFFFF"></path>
</svg></defs><use href="#svg-1402662203_1280"></use></svg>