<svg xmlns:xlink="http://www.w3.org/1999/xlink" width="98" height="26" viewBox="0 0 98 26" fill="none" xmlns="http://www.w3.org/2000/svg" id="svg-439731428_2281">
<path fill-rule="evenodd" clip-rule="evenodd" d="M61.548 7.3904C62.7833 6.10654 64.1143 5.49104 65.8408 5.49104C66.4849 5.49104 67.3432 5.57529 68.33 5.74809L65.798 9.07555C65.5838 9.03414 65.2824 8.99129 64.9397 8.99129C63.0518 8.99129 61.8064 10.3137 61.8064 12.4044V21.5357H58.1577V5.79094H61.548V7.3904ZM93.0946 5.78951H97.3017L91.328 13.7354L97.3003 21.5357H92.9646L89.1873 16.5545L85.41 21.5357H81.1186L87.0537 13.724L81.1186 5.78951H85.3257L89.2101 10.9249L93.0946 5.78951ZM20.3913 2.64746C20.4844 2.52201 20.5832 2.38891 20.6888 2.24784C21.6328 0.968265 23.1765 0.199951 24.7646 0.199951H31.8465V21.5342H13.8625C12.7942 21.5342 12.517 21.9113 11.6441 23.0988C11.5006 23.294 11.341 23.5111 11.1591 23.7521C10.1723 25.0316 8.62711 25.7999 7.03907 25.7999H0V4.46567H17.9411C19.0416 4.46567 19.3861 4.00155 20.3913 2.64746ZM18.7551 16.0304H26.2669V5.78951H19.9576C18.8505 5.78951 18.4885 6.25796 17.3336 7.75243C17.2803 7.82139 17.2254 7.89254 17.1685 7.96592C16.1817 9.24549 14.6794 10.0138 13.0485 10.0138H5.53672V20.2547H11.8874C12.9759 20.2547 13.2897 19.8346 14.2948 18.4892C14.4001 18.3483 14.513 18.1972 14.6351 18.0354C15.6219 16.713 17.1243 16.0304 18.7551 16.0304ZM55.9256 6.21651C55.9256 8.30724 54.8116 9.88671 53.2222 10.7821C55.54 11.8903 56.4411 13.5983 56.4411 15.5605C56.4411 18.888 53.8648 21.5342 50.1318 21.5342H39.831V0.199951H50.1318C53.5649 0.199951 55.9256 3.14468 55.9256 6.21651ZM49.8319 3.52741H43.4797V9.07412H49.6177C50.9472 9.07412 52.3639 7.96592 52.3639 6.34361C52.3639 5.02119 51.4199 3.52741 49.8319 3.52741ZM43.4783 18.2054H49.6162C51.12 18.2054 52.7923 16.8829 52.7923 15.2606C52.7923 13.8097 51.4613 12.4016 49.8305 12.4016H43.4783V18.2054ZM74.425 18.5038C75.7132 18.5038 76.8713 17.9497 77.4725 17.01H81.3798C80.5644 20.2532 77.731 21.8313 74.5121 21.8313C69.9194 21.8313 66.9589 18.758 66.9589 13.6812C66.9589 8.60428 69.9636 5.48961 74.4264 5.48961C78.8892 5.48961 81.8511 8.77565 81.8511 13.5541C81.8511 14.1096 81.8083 14.4081 81.6369 15.0478H70.7348C70.7348 17.1386 72.4085 18.5038 74.425 18.5038ZM77.9453 12.0189C77.9881 10.0981 76.4429 8.8185 74.425 8.8185C72.4085 8.8185 70.7762 10.1423 70.7776 12.0189H77.9453Z" fill="#FFFFFF"></path>
</svg>