<svg xmlns="http://www.w3.org/2000/svg" xmlns:xlink="http://www.w3.org/1999/xlink" style="width: 100%; height: 100%" viewBox="0 0 171 24" preserveAspectRatio="none" width="171" height="24"><defs><svg width="171" height="24" viewBox="0 0 171 24" fill="none" xmlns="http://www.w3.org/2000/svg" id="svg-76621526_3525">
<path fill-rule="evenodd" clip-rule="evenodd" d="M29.8618 15.2252C31.1653 18.3322 34.2143 20.3462 37.5836 20.3259C42.1618 20.3057 45.8603 16.5847 45.8527 12.0065C45.8526 8.63712 43.8202 5.60046 40.7053 4.31578C37.5904 3.03111 34.0082 3.75213 31.6329 6.14188C29.2576 8.53162 28.5583 12.1181 29.8618 15.2252ZM26.9894 7.58075C28.7759 3.31483 32.9588 0.547395 37.5836 0.571445C43.8683 0.604125 48.9457 5.7081 48.9456 11.9928C48.9456 16.6177 46.1563 20.7861 41.8812 22.5504C37.606 24.3147 32.6888 23.3266 29.4271 20.0477C26.1653 16.7689 25.2028 11.8467 26.9894 7.58075ZM79.5184 1.37531C79.5724 1.28539 79.6693 1.23003 79.7742 1.22912C79.8566 1.2279 79.9361 1.25947 79.9952 1.31687C80.0543 1.37428 80.0882 1.45282 80.0894 1.53521V22.747H76.992V10.22L67.9919 22.3724C67.9468 22.4267 67.8798 22.4582 67.8092 22.4582C67.7385 22.4582 67.6716 22.4267 67.6264 22.3724L58.6264 10.22V22.747H55.5289V1.53521C55.5314 1.36543 55.6697 1.2291 55.8395 1.22912C55.9461 1.22843 56.0451 1.284 56.1 1.37531L67.8092 17.2967L79.5184 1.37531ZM99.0261 11.9194H91.8078V4.33561H99.0261C101.118 4.33561 102.813 6.03126 102.813 8.12294C102.813 10.2146 101.118 11.9103 99.0261 11.9103V11.9194ZM99.0261 1.21986H88.7012V22.7378H91.7986V15.0352H99.0169C102.829 15.0352 105.92 11.9446 105.92 8.13208C105.92 4.31961 102.829 1.22899 99.0169 1.22899L99.0261 1.21986ZM3.84857 13.846C4.71167 17.6528 8.10544 20.3477 12.0088 20.3257C14.5732 20.3258 16.9907 19.1297 18.5464 17.0912L20.7713 19.2886C17.7009 22.9985 12.6334 24.3839 8.10257 22.7521C3.57179 21.1203 0.55127 16.822 0.55127 12.0064C0.55127 7.1907 3.57179 2.89242 8.10257 1.26065C12.6334 -0.371119 17.7009 1.01426 20.7713 4.72409L18.5464 6.92157C16.1606 3.83213 11.9476 2.81693 8.41638 4.48055C4.88518 6.14416 2.98548 10.0392 3.84857 13.846ZM142.642 10.0231L140.271 9.48405C137.722 8.93582 137.53 7.19977 137.53 6.65611C137.53 4.89722 138.932 3.88757 141.376 3.88757C143.889 3.88757 145.726 5.59164 146.288 6.17184L148.467 4.02919C146.42 1.88197 144.104 0.831202 141.376 0.831202C137.224 0.831202 134.432 3.16573 134.432 6.6424C134.432 7.74799 134.432 11.1105 140.015 12.4856L142.61 13.0978C145.018 13.7602 146.187 14.9252 146.187 16.6521C146.187 18.676 144.236 20.0877 141.45 20.0877C138.466 20.0877 136.63 18.0364 136.082 17.3465L133.93 19.4663C135.396 21.1384 137.9 23.1212 141.482 23.1212C145.945 23.1212 149.312 20.3344 149.312 16.643C149.312 13.3353 147.028 11.0419 142.665 10.014L142.642 10.0231ZM161.117 9.48405L163.488 10.0231H163.493C167.856 11.0511 170.14 13.3445 170.14 16.6521C170.14 20.3435 166.773 23.1303 162.31 23.1303C158.728 23.1303 156.224 21.1476 154.758 19.4755L156.942 17.3328C157.485 18.0227 159.326 20.074 162.31 20.074C165.096 20.074 167.043 18.6623 167.043 16.6384C167.043 14.9115 165.873 13.7465 163.47 13.0841L160.861 12.4856C155.279 11.1105 155.279 7.74799 155.279 6.6424C155.279 3.16573 158.07 0.831202 162.223 0.831202C164.946 0.831202 167.267 1.88197 169.313 4.02919L167.13 6.17184C166.572 5.59164 164.736 3.88756 162.223 3.88756C159.779 3.88756 158.376 4.89722 158.376 6.65611C158.376 7.19977 158.568 8.93582 161.117 9.48405ZM114.957 14.117L118.502 7.3555L122.052 14.117H114.957ZM118.502 1.03719C118.38 1.03827 118.27 1.10941 118.219 1.21993L106.93 22.747H110.434L113.321 17.2327H123.678L126.57 22.747H130.069L118.785 1.21993C118.733 1.11016 118.623 1.03936 118.502 1.03719ZM34.8881 16.8991L32.6998 14.697L40.2699 7.08125L42.4628 9.2833L34.8881 16.8991Z" fill="#FFFFFF"></path>
</svg></defs><use href="#svg-76621526_3525"></use></svg>