<svg xmlns:xlink="http://www.w3.org/1999/xlink" width="70" height="24" viewBox="0 0 70 24" fill="none" xmlns="http://www.w3.org/2000/svg" id="svg692644521_4638">
<path d="M59.0997 24C58.9945 24 58.9091 23.9152 58.9091 23.8106V1.01203C58.9091 0.922374 58.9725 0.845023 59.0609 0.826745L63.0431 0.00404133C63.1615 -0.0204233 63.2727 0.0692866 63.2727 0.189321V23.8106C63.2727 23.9152 63.1872 24 63.082 24H59.0997Z" fill="#FFFFFF"></path>
<path d="M7.91617 24C6.40215 24 5.05034 23.6278 3.86075 22.8833C2.67117 22.1388 1.73032 21.1206 1.03818 19.8287C0.346062 18.5369 0 17.0699 0 15.4277C0 13.7855 0.346062 12.3294 1.03818 11.0595C1.73032 9.76758 2.67117 8.76036 3.86075 8.03779C5.05034 7.29333 6.40215 6.9211 7.91617 6.9211C9.12739 6.9211 10.1872 7.151 11.0956 7.61082C11.8238 7.97939 12.4408 8.46754 12.9465 9.07525C13.0612 9.21308 13.3018 9.13513 13.3018 8.95542V0.975755C13.3018 0.889311 13.3621 0.814732 13.4462 0.797114L17.236 0.00389646C17.3487 -0.0196912 17.4545 0.0668029 17.4545 0.182535V23.4234C17.4545 23.5242 17.3732 23.6058 17.2731 23.6058H13.9053C13.8186 23.6058 13.7439 23.544 13.7273 23.4585L13.3822 21.6866C13.3516 21.5299 13.1471 21.4834 13.0458 21.6062C12.5622 22.1928 11.9554 22.717 11.2254 23.1789C10.3818 23.7263 9.27879 24 7.91617 24ZM8.79214 20.3214C10.1331 20.3214 11.2254 19.8726 12.0689 18.9748C12.934 18.0552 13.3666 16.8838 13.3666 15.4605C13.3666 14.0373 12.934 12.8768 12.0689 11.9791C11.2254 11.0595 10.1331 10.5996 8.79214 10.5996C7.47278 10.5996 6.38052 11.0484 5.51536 11.9462C4.65021 12.844 4.21764 14.0044 4.21764 15.4277C4.21764 16.8509 4.65021 18.0224 5.51536 18.942C6.38052 19.8616 7.47278 20.3214 8.79214 20.3214Z" fill="#FFFFFF"></path>
<path d="M28.5016 23.9999C26.7769 23.9999 25.2476 23.6419 23.9138 22.9259C22.58 22.2098 21.5336 21.2028 20.7747 19.9049C20.0159 18.607 19.6364 17.1077 19.6364 15.407C19.6364 13.6839 20.0043 12.151 20.7403 10.8084C21.4992 9.46569 22.534 8.42513 23.8448 7.68667C25.1786 6.92583 26.7424 6.54541 28.5361 6.54541C30.2149 6.54541 31.6982 6.90345 32.9859 7.61954C34.2738 8.33562 35.2741 9.32023 35.987 10.5734C36.7229 11.8041 37.0909 13.1804 37.0909 14.702C37.0909 14.9482 37.0793 15.2056 37.0563 15.4741C37.0563 15.6892 37.049 15.9115 37.0342 16.1409C37.0279 16.2382 36.9439 16.3132 36.8431 16.3132H24.2239C24.1121 16.3132 24.0235 16.4049 24.0345 16.5124C24.1578 17.7158 24.612 18.6675 25.3971 19.3678C26.248 20.1063 27.2713 20.4755 28.4671 20.4755C29.364 20.4755 30.1114 20.2852 30.7093 19.9049C31.2943 19.5254 31.7363 19.0465 32.0357 18.4684C32.0692 18.4033 32.1374 18.3608 32.2126 18.3608H36.3151C36.4441 18.3608 36.5368 18.4807 36.4963 18.5991C36.168 19.5583 35.6534 20.4411 34.9522 21.2475C34.2163 22.0978 33.2965 22.7692 32.1926 23.2615C31.1118 23.7538 29.8815 23.9999 28.5016 23.9999ZM28.5361 10.0363C27.4553 10.0363 26.5009 10.3384 25.673 10.9426C24.8961 11.4886 24.3824 12.3106 24.1321 13.4084C24.1062 13.5222 24.1974 13.628 24.318 13.628H32.4015C32.5126 13.628 32.6012 13.5373 32.5901 13.4304C32.4859 12.4261 32.0774 11.6192 31.3647 11.0098C30.6059 10.3608 29.663 10.0363 28.5361 10.0363Z" fill="#FFFFFF"></path>
<path d="M48.138 23.9999C46.4132 23.9999 44.8839 23.6419 43.5501 22.9259C42.2162 22.2098 41.17 21.2028 40.411 19.9049C39.6521 18.607 39.2727 17.1077 39.2727 15.407C39.2727 13.6839 39.6407 12.151 40.3765 10.8084C41.1354 9.46569 42.1703 8.42513 43.4811 7.68667C44.8149 6.92583 46.3788 6.54541 48.1725 6.54541C49.8512 6.54541 51.3345 6.90345 52.6224 7.61954C53.9102 8.33562 54.9105 9.32023 55.6234 10.5734C56.3594 11.8041 56.7272 13.1804 56.7272 14.702C56.7272 14.9482 56.7158 15.2056 56.6928 15.4741C56.6928 15.6892 56.6854 15.9115 56.6707 16.1409C56.6644 16.2382 56.5804 16.3132 56.4795 16.3132H43.8602C43.7485 16.3132 43.6598 16.4049 43.6709 16.5124C43.7942 17.7158 44.2484 18.6675 45.0334 19.3678C45.8843 20.1063 46.9077 20.4755 48.1034 20.4755C49.0003 20.4755 49.7478 20.2852 50.3457 19.9049C50.9306 19.5254 51.3728 19.0465 51.672 18.4684C51.7057 18.4033 51.7737 18.3608 51.849 18.3608H55.9516C56.0805 18.3608 56.1731 18.4807 56.1326 18.5991C55.8045 19.5583 55.2898 20.4411 54.5886 21.2475C53.8527 22.0978 52.9328 22.7692 51.829 23.2615C50.7481 23.7538 49.5178 23.9999 48.138 23.9999ZM48.1725 10.0363C47.0916 10.0363 46.1373 10.3384 45.3094 10.9426C44.5324 11.4886 44.0188 12.3106 43.7684 13.4084C43.7425 13.5222 43.8337 13.628 43.9543 13.628H52.0378C52.149 13.628 52.2375 13.5373 52.2265 13.4304C52.1223 12.4261 51.7138 11.6192 51.0011 11.0098C50.2422 10.3608 49.2993 10.0363 48.1725 10.0363Z" fill="#FFFFFF"></path>
<path d="M67.6363 24C68.8413 24 69.8181 23.0232 69.8181 21.8182C69.8181 20.6132 68.8413 19.6364 67.6363 19.6364C66.4313 19.6364 65.4545 20.6132 65.4545 21.8182C65.4545 23.0232 66.4313 24 67.6363 24Z" fill="#FFFFFF"></path>
</svg>