<svg xmlns:xlink="http://www.w3.org/1999/xlink" width="107" height="32" viewBox="0 0 107 32" fill="none" xmlns="http://www.w3.org/2000/svg" id="svg-1579702124_6399">
<path d="M16.0289 0C7.17657 0 0 7.16357 0 16.0001C0 24.837 7.17657 32 16.0289 32C24.8822 32 32.058 24.837 32.058 16.0001C32.058 7.16414 24.8822 0.000764253 16.0287 0.000764253L16.0289 0ZM23.3797 23.0767C23.0926 23.5467 22.4762 23.6958 22.0054 23.4073C18.2419 21.1126 13.5043 20.5929 7.92478 21.8654C7.38712 21.9877 6.85118 21.6514 6.72868 21.1145C6.60561 20.5776 6.94114 20.0426 7.48014 19.9204C13.586 18.5279 18.8234 19.1274 23.0485 21.7049C23.5194 21.9934 23.6687 22.6067 23.3797 23.0767ZM25.3416 18.7201C24.9798 19.307 24.2104 19.4924 23.6227 19.1313C19.3142 16.4877 12.7465 15.7221 7.6503 17.2663C6.98938 17.4656 6.29132 17.0937 6.09073 16.4351C5.89167 15.7754 6.26433 15.0799 6.92411 14.8793C12.7453 13.1162 19.9822 13.9702 24.93 17.0053C25.5177 17.3664 25.7033 18.1345 25.3416 18.7203V18.7201ZM25.51 14.1835C20.344 11.1205 11.8207 10.8389 6.88832 12.3332C6.09628 12.573 5.25869 12.1267 5.01866 11.336C4.77864 10.545 5.22538 9.7095 6.01799 9.46914C11.68 7.75338 21.0924 8.08488 27.0401 11.6094C27.754 12.0315 27.9876 12.9499 27.5646 13.6601C27.1435 14.3713 26.2209 14.6057 25.5108 14.1835H25.51ZM43.6093 14.7704C40.8416 14.1116 40.3497 13.6492 40.3497 12.6777C40.3497 11.7598 41.2149 11.1421 42.503 11.1421C43.751 11.1421 44.9875 11.6112 46.2852 12.5768C46.3235 12.606 46.3733 12.6177 46.4211 12.61C46.4709 12.6028 46.513 12.5762 46.5417 12.5363L47.893 10.6348C47.9485 10.5565 47.9332 10.4485 47.8586 10.3887C46.3139 9.15197 44.576 8.55069 42.5432 8.55069C39.5554 8.55069 37.4671 10.3408 37.4671 12.902C37.4671 15.6485 39.2683 16.6211 42.3805 17.3717C45.0277 17.9807 45.4756 18.4908 45.4756 19.4026C45.4756 20.4133 44.5721 21.0419 43.1174 21.0419C41.502 21.0419 40.1832 20.4974 38.7094 19.2249C38.673 19.1924 38.6232 19.179 38.5773 19.1809C38.5275 19.1848 38.4835 19.2077 38.4529 19.244L36.9369 21.0438C36.8738 21.1202 36.8814 21.2311 36.9542 21.296C38.6692 22.8245 40.7785 23.6308 43.0562 23.6308C46.2756 23.6308 48.3562 21.8749 48.3562 19.1561C48.362 16.862 46.9857 15.5914 43.6151 14.7729L43.6093 14.7704ZM55.6411 12.0458C54.2458 12.0458 53.1012 12.5946 52.1556 13.719V12.4534C52.1556 12.3534 52.0752 12.2721 51.9757 12.2721H49.497C49.3975 12.2721 49.3171 12.3534 49.3171 12.4534V26.5159C49.3171 26.6152 49.3975 26.6974 49.497 26.6974H51.9757C52.0752 26.6974 52.1556 26.6152 52.1556 26.5159V22.0775C53.1012 23.1341 54.2458 23.6518 55.6411 23.6518C58.2347 23.6518 60.8608 21.659 60.8608 17.8494C60.8646 14.039 58.2385 12.0456 55.643 12.0456L55.6411 12.0458ZM57.9782 17.8494C57.9782 19.7885 56.7819 21.1432 55.0669 21.1432C53.373 21.1432 52.0944 19.7274 52.0944 17.8494C52.0944 15.9712 53.373 14.5558 55.0669 14.5558C56.7532 14.5556 57.9782 15.9405 57.9782 17.8492V17.8494ZM67.5887 12.0458C64.2486 12.0458 61.6321 14.613 61.6321 17.8909C61.6321 21.1336 64.2314 23.6728 67.5485 23.6728C70.9 23.6728 73.5242 21.1145 73.5242 17.8494C73.5242 14.5954 70.9172 12.0462 67.5887 12.0462V12.0458ZM67.5887 21.1623C65.8124 21.1623 64.4726 19.7369 64.4726 17.8484C64.4726 15.9514 65.7665 14.5748 67.5485 14.5748C69.3362 14.5748 70.6837 15.9995 70.6837 17.8899C70.6837 19.7866 69.3822 21.1623 67.5887 21.1623ZM80.656 12.2721H77.9284V9.48901C77.9284 9.38928 77.848 9.30788 77.7485 9.30788H75.2698C75.1703 9.30788 75.088 9.38928 75.088 9.48901V12.2721H73.8974C73.7979 12.2721 73.7175 12.3534 73.7175 12.4534V14.5793C73.7175 14.6791 73.7979 14.7607 73.8974 14.7607H75.088V20.2624C75.088 22.4844 76.1962 23.6117 78.384 23.6117C79.2721 23.6117 80.009 23.4283 80.7038 23.0347C80.7612 23.0041 80.7957 22.943 80.7957 22.878V20.8527C80.7957 20.7916 80.7632 20.7324 80.7096 20.6999C80.656 20.6655 80.589 20.6636 80.5335 20.6922C80.0569 20.9311 79.5956 21.0419 79.0788 21.0419C78.2844 21.0419 77.9284 20.6808 77.9284 19.8745V14.7616H80.656C80.7555 14.7616 80.8359 14.6802 80.8359 14.5803V12.4545C80.8397 12.3546 80.7593 12.2732 80.6579 12.2732L80.656 12.2721ZM90.1574 12.2829V11.9411C90.1574 10.9356 90.544 10.4871 91.4092 10.4871C91.9259 10.4871 92.3413 10.5895 92.8064 10.7443C92.8638 10.7623 92.9232 10.7533 92.9691 10.7191C93.017 10.6849 93.0438 10.63 93.0438 10.572V8.48745C93.0438 8.40778 92.994 8.33728 92.9155 8.31378C92.4255 8.16799 91.7977 8.01839 90.856 8.01839C88.5687 8.01839 87.3571 9.30502 87.3571 11.7378V12.2614H86.1665C86.067 12.2614 85.9847 12.3427 85.9847 12.4425V14.5793C85.9847 14.6791 86.067 14.7607 86.1665 14.7607H87.3571V23.2449C87.3571 23.3461 87.4394 23.4264 87.5389 23.4264H90.0157C90.1172 23.4264 90.1976 23.3461 90.1976 23.2449V14.7612H92.5117L96.0565 23.2449C95.6545 24.1352 95.2583 24.3129 94.7186 24.3129C94.2822 24.3129 93.8209 24.183 93.3519 23.9251C93.3079 23.9021 93.2543 23.8983 93.2084 23.9117C93.1605 23.9289 93.1203 23.9633 93.1012 24.0091L92.2609 25.8491C92.2207 25.937 92.2552 26.0382 92.3394 26.0841C93.216 26.5579 94.0065 26.7604 94.9846 26.7604C96.8145 26.7604 97.827 25.9083 98.717 23.6194L103.016 12.5306C103.039 12.4748 103.031 12.4117 102.997 12.3622C102.964 12.3131 102.909 12.2835 102.849 12.2835H100.269C100.191 12.2835 100.122 12.3326 100.097 12.405L97.4538 19.9395L94.5597 12.4001C94.5329 12.3299 94.4659 12.2835 94.3913 12.2835H90.1574V12.2829ZM84.6487 12.2721H82.17C82.0705 12.2721 81.9882 12.3534 81.9882 12.4534V23.2449C81.9882 23.3461 82.0705 23.4264 82.17 23.4264H84.6487C84.7482 23.4264 84.8305 23.3461 84.8305 23.2449V12.4541C84.8305 12.3542 84.7501 12.2728 84.6487 12.2728V12.2721ZM83.4237 7.35807C82.4418 7.35807 81.6455 8.15137 81.6455 9.13134C81.6455 10.1119 82.4418 10.9061 83.4237 10.9061C84.4056 10.9061 85.1999 10.1119 85.1999 9.13134C85.1999 8.15156 84.4037 7.35807 83.4237 7.35807ZM105.133 15.742C104.153 15.742 103.389 14.9557 103.389 14.001C103.389 13.0462 104.163 12.251 105.143 12.251C106.123 12.251 106.886 13.0371 106.886 13.9911C106.886 14.9458 106.113 15.742 105.133 15.742ZM105.143 12.4241C104.249 12.4241 103.573 13.133 103.573 14.001C103.573 14.8686 104.245 15.5679 105.133 15.5679C106.027 15.5679 106.702 14.8596 106.702 13.9911C106.702 13.1234 106.031 12.4241 105.143 12.4241ZM105.529 14.1701L106.023 14.8594H105.606L105.162 14.227H104.781V14.8594H104.432V13.0321H105.248C105.675 13.0321 105.954 13.2493 105.954 13.615C105.956 13.9146 105.782 14.0977 105.531 14.1701H105.529ZM105.234 13.3456H104.781V13.9236H105.234C105.46 13.9236 105.596 13.813 105.596 13.6343C105.596 13.4463 105.46 13.3456 105.234 13.3456Z" fill="#FFFFFF"></path>
</svg>