<svg xmlns:xlink="http://www.w3.org/1999/xlink" width="97" height="26" viewBox="0 0 97 26" fill="none" xmlns="http://www.w3.org/2000/svg" id="svg1486331572_1289">
<path d="M13.2617 24.1496C11.8108 24.3998 10.3345 24.4748 8.80724 24.6747L4.14899 11.2748V25.2498C2.69815 25.3997 1.37455 25.5997 0 25.7997V0.199707H3.86916L9.16355 14.7249V0.199707H13.2617V24.1496ZM21.2798 9.57471C22.8581 9.57471 25.2762 9.49969 26.7271 9.49969V13.4996C24.9197 13.4996 22.8071 13.4996 21.2798 13.5746V19.5247C23.6726 19.3748 26.0653 19.1746 28.4834 19.0996V22.9494L17.207 23.8245V0.199707H28.4834V4.19971H21.2798V9.57471ZM43.6287 4.19981H39.4033V22.5998C38.0287 22.5998 36.6542 22.5998 35.3308 22.6496V4.19981H31.1054V0.199707H43.6289L43.6287 4.19981ZM50.2467 9.29979H55.8213V13.2997H50.2467V22.3748H46.2501V0.199707H57.6286V4.19971H50.2467V9.29979ZM64.2467 18.8747C66.5631 18.9246 68.9047 19.0999 71.1703 19.2246V23.1747C67.5304 22.9495 63.8903 22.7248 60.174 22.6496V0.199707H64.2467V18.8747ZM74.6066 23.4497C75.9047 23.5248 77.2793 23.5998 78.6029 23.7496V0.199707H74.6066V23.4497ZM96.4465 0.199707L91.2792 12.3747L96.4465 25.7997C94.9191 25.5997 93.3919 25.3247 91.8645 25.0747L88.9374 17.6748L85.9595 24.4749C84.4829 24.2246 83.0575 24.1496 81.5814 23.9496L86.8249 12.2246L82.0903 0.199707H86.4682L89.141 6.92472L91.992 0.199707H96.4465V0.199707Z" fill="#FFFFFF"></path>
</svg>