<svg xmlns="http://www.w3.org/2000/svg" xmlns:xlink="http://www.w3.org/1999/xlink" style="width: 100%; height: 100%" viewBox="0 0 91 91" preserveAspectRatio="none" width="91" height="91"><defs><svg width="91" height="91" viewBox="0 0 91 91" fill="none" xmlns="http://www.w3.org/2000/svg" id="svg-2090471400_2126">
<g clip-path="url(#svg-2090471400_2126_clip0_2594_38315)" fill="none">
<circle cx="40.0994" cy="73.9734" r="9.75" transform="rotate(9.97417 40.0994 73.9734)" fill="url(&quot;#svg-2090471400_2126_paint0_radial_2594_38315&quot;)"></circle>
<path fill-rule="evenodd" clip-rule="evenodd" d="M55.9906 61.0637C57.6963 57.6685 60.6055 55.0876 63.5824 52.7263C68.3922 48.9111 71.8773 43.3874 73.0242 36.8654C75.5113 22.723 66.0629 9.24213 51.9205 6.75502C37.7781 4.26791 24.2973 13.7164 21.8102 27.8587C20.6632 34.3808 22.0546 40.7621 25.2742 45.9893C27.2669 49.2246 29.121 52.6431 29.5659 56.4166L29.9178 59.4009C30.5955 65.1481 34.9627 69.7703 40.6622 70.7726C46.3617 71.7749 52.0439 68.9201 54.6417 63.7489L55.9906 61.0637Z" fill="url(&quot;#svg-2090471400_2126_paint1_radial_2594_38315&quot;)"></path>
<path d="M27.8558 60.4753C27.9044 59.4991 28.7976 58.7864 29.7602 58.9557L54.9422 63.3842C55.9049 63.5535 56.5013 64.5282 56.2139 65.4625L53.3249 74.854C53.0839 75.6373 52.2974 76.1186 51.4902 75.9767L28.7089 71.9703C27.9018 71.8283 27.3266 71.1076 27.3674 70.2891L27.8558 60.4753Z" fill="url(&quot;#svg-2090471400_2126_paint2_radial_2594_38315&quot;)"></path>
</g>
<defs>
<radialGradient id="svg-2090471400_2126_paint0_radial_2594_38315" cx="0" cy="0" r="1" gradientUnits="userSpaceOnUse" gradientTransform="translate(40.0994 77.2234) rotate(90) scale(6.5)">
<stop stop-color="#6A6179"></stop>
<stop offset="1" stop-color="#372A4B"></stop>
</radialGradient>
<radialGradient id="svg-2090471400_2126_paint1_radial_2594_38315" cx="0" cy="0" r="1" gradientUnits="userSpaceOnUse" gradientTransform="translate(47.4172 32.3621) rotate(99.9742) scale(43.4318)">
<stop offset="0.0732287" stop-color="#FFFCF2"></stop>
<stop offset="0.519967" stop-color="#FFDD72"></stop>
<stop offset="0.745737" stop-color="#EDA30C"></stop>
</radialGradient>
<radialGradient id="svg-2090471400_2126_paint2_radial_2594_38315" cx="0" cy="0" r="1" gradientUnits="userSpaceOnUse" gradientTransform="translate(41.2254 67.5717) rotate(99.9742) scale(6.5 14.625)">
<stop stop-color="#DFD6DB"></stop>
<stop offset="1" stop-color="#796896"></stop>
</radialGradient>
<clipPath id="svg-2090471400_2126_clip0_2594_38315">
<rect width="78" height="78" fill="white" transform="translate(13.5098) rotate(9.97417)"></rect>
</clipPath>
<radialGradient id="svg-2090471400_2126_paint0_radial_2594_38315" cx="0" cy="0" r="1" gradientUnits="userSpaceOnUse" gradientTransform="translate(40.0994 77.2234) rotate(90) scale(6.5)">
<stop stop-color="#6A6179"></stop>
<stop offset="1" stop-color="#372A4B"></stop>
</radialGradient><radialGradient id="svg-2090471400_2126_paint1_radial_2594_38315" cx="0" cy="0" r="1" gradientUnits="userSpaceOnUse" gradientTransform="translate(47.4172 32.3621) rotate(99.9742) scale(43.4318)">
<stop offset="0.0732287" stop-color="#FFFCF2"></stop>
<stop offset="0.519967" stop-color="#FFDD72"></stop>
<stop offset="0.745737" stop-color="#EDA30C"></stop>
</radialGradient><radialGradient id="svg-2090471400_2126_paint2_radial_2594_38315" cx="0" cy="0" r="1" gradientUnits="userSpaceOnUse" gradientTransform="translate(41.2254 67.5717) rotate(99.9742) scale(6.5 14.625)">
<stop stop-color="#DFD6DB"></stop>
<stop offset="1" stop-color="#796896"></stop>
</radialGradient><radialGradient id="svg-2090471400_2126_paint0_radial_2594_38315" cx="0" cy="0" r="1" gradientUnits="userSpaceOnUse" gradientTransform="translate(40.0994 77.2234) rotate(90) scale(6.5)">
<stop stop-color="#6A6179"></stop>
<stop offset="1" stop-color="#372A4B"></stop>
</radialGradient><radialGradient id="svg-2090471400_2126_paint1_radial_2594_38315" cx="0" cy="0" r="1" gradientUnits="userSpaceOnUse" gradientTransform="translate(47.4172 32.3621) rotate(99.9742) scale(43.4318)">
<stop offset="0.0732287" stop-color="#FFFCF2"></stop>
<stop offset="0.519967" stop-color="#FFDD72"></stop>
<stop offset="0.745737" stop-color="#EDA30C"></stop>
</radialGradient><radialGradient id="svg-2090471400_2126_paint2_radial_2594_38315" cx="0" cy="0" r="1" gradientUnits="userSpaceOnUse" gradientTransform="translate(41.2254 67.5717) rotate(99.9742) scale(6.5 14.625)">
<stop stop-color="#DFD6DB"></stop>
<stop offset="1" stop-color="#796896"></stop>
</radialGradient></defs>
</svg></defs><use href="#svg-2090471400_2126"></use></svg>