<svg xmlns:xlink="http://www.w3.org/1999/xlink" width="15" height="14" viewBox="0 0 15 14" fill="none" xmlns="http://www.w3.org/2000/svg" id="svg-565224127_3273">
<g clip-path="url(#svg-565224127_3273_clip0_308_672)" fill="none">
<g filter="url(#svg-565224127_3273_filter0_ii_308_672)" fill="none">
<path d="M7.28572 13.375C7.28572 13.375 0 9.34868 0 4.48355C0 2.35253 1.7051 0.625 3.80844 0.625C5.35763 0.625 6.69078 1.56216 7.28572 2.90745C7.88065 1.56216 9.2138 0.625 10.763 0.625C12.8663 0.625 14.5714 2.35253 14.5714 4.48355C14.5714 9.34868 7.28572 13.375 7.28572 13.375Z" fill="url(&quot;#svg-565224127_3273_paint0_radial_308_672&quot;)"></path>
<path d="M7.28572 13.375C7.28572 13.375 0 9.34868 0 4.48355C0 2.35253 1.7051 0.625 3.80844 0.625C5.35763 0.625 6.69078 1.56216 7.28572 2.90745C7.88065 1.56216 9.2138 0.625 10.763 0.625C12.8663 0.625 14.5714 2.35253 14.5714 4.48355C14.5714 9.34868 7.28572 13.375 7.28572 13.375Z" fill="url(&quot;#svg-565224127_3273_paint1_radial_308_672&quot;)" fill-opacity="0.2"></path>
<path d="M7.28572 13.375C7.28572 13.375 0 9.34868 0 4.48355C0 2.35253 1.7051 0.625 3.80844 0.625C5.35763 0.625 6.69078 1.56216 7.28572 2.90745C7.88065 1.56216 9.2138 0.625 10.763 0.625C12.8663 0.625 14.5714 2.35253 14.5714 4.48355C14.5714 9.34868 7.28572 13.375 7.28572 13.375Z" fill="url(&quot;#svg-565224127_3273_paint2_radial_308_672&quot;)" fill-opacity="0.2"></path>
</g>
</g>
<defs>
<filter id="svg-565224127_3273_filter0_ii_308_672" x="-0.75" y="-0.125" width="16.0714" height="14.25" filterUnits="userSpaceOnUse" color-interpolation-filters="sRGB">
<feFlood flood-opacity="0" result="BackgroundImageFix"></feFlood>
<feBlend mode="normal" in="SourceGraphic" in2="BackgroundImageFix" result="shape"></feBlend>
<feColorMatrix in="SourceAlpha" type="matrix" values="0 0 0 0 0 0 0 0 0 0 0 0 0 0 0 0 0 0 127 0" result="hardAlpha"></feColorMatrix>
<feOffset dx="0.75" dy="0.75"></feOffset>
<feGaussianBlur stdDeviation="1.5"></feGaussianBlur>
<feComposite in2="hardAlpha" operator="arithmetic" k2="-1" k3="1"></feComposite>
<feColorMatrix type="matrix" values="0 0 0 0 0 0 0 0 0 0 0 0 0 0 0 0 0 0 0.25 0"></feColorMatrix>
<feBlend mode="normal" in2="shape" result="effect1_innerShadow_308_672"></feBlend>
<feColorMatrix in="SourceAlpha" type="matrix" values="0 0 0 0 0 0 0 0 0 0 0 0 0 0 0 0 0 0 127 0" result="hardAlpha"></feColorMatrix>
<feOffset dx="-0.75" dy="-0.75"></feOffset>
<feGaussianBlur stdDeviation="1.5"></feGaussianBlur>
<feComposite in2="hardAlpha" operator="arithmetic" k2="-1" k3="1"></feComposite>
<feColorMatrix type="matrix" values="0 0 0 0 0 0 0 0 0 0 0 0 0 0 0 0 0 0 0.25 0"></feColorMatrix>
<feBlend mode="normal" in2="effect1_innerShadow_308_672" result="effect2_innerShadow_308_672"></feBlend>
</filter>
<radialGradient id="svg-565224127_3273_paint0_radial_308_672" cx="0" cy="0" r="1" gradientUnits="userSpaceOnUse" gradientTransform="translate(7.28571 4.45) rotate(90) scale(13.0688 12.4464)">
<stop stop-color="#B593EC"></stop>
<stop offset="1" stop-color="#521BAC"></stop>
</radialGradient>
<radialGradient id="svg-565224127_3273_paint1_radial_308_672" cx="0" cy="0" r="1" gradientUnits="userSpaceOnUse" gradientTransform="translate(3.64286 4.45) rotate(90) scale(5.7375 6.55714)">
<stop stop-color="#E1CEFF"></stop>
<stop offset="1" stop-color="#956ED4" stop-opacity="0"></stop>
</radialGradient>
<radialGradient id="svg-565224127_3273_paint2_radial_308_672" cx="0" cy="0" r="1" gradientUnits="userSpaceOnUse" gradientTransform="translate(10.9286 4.45) rotate(90) scale(5.7375 6.55714)">
<stop stop-color="#E1CEFF"></stop>
<stop offset="1" stop-color="#956ED4" stop-opacity="0"></stop>
</radialGradient>
<clipPath id="svg-565224127_3273_clip0_308_672">
<rect width="14.5714" height="12.75" fill="white" transform="translate(0 0.625)"></rect>
</clipPath>
<radialGradient id="svg-565224127_3273_paint0_radial_308_672" cx="0" cy="0" r="1" gradientUnits="userSpaceOnUse" gradientTransform="translate(7.28571 4.45) rotate(90) scale(13.0688 12.4464)">
<stop stop-color="#B593EC"></stop>
<stop offset="1" stop-color="#521BAC"></stop>
</radialGradient><radialGradient id="svg-565224127_3273_paint1_radial_308_672" cx="0" cy="0" r="1" gradientUnits="userSpaceOnUse" gradientTransform="translate(3.64286 4.45) rotate(90) scale(5.7375 6.55714)">
<stop stop-color="#E1CEFF"></stop>
<stop offset="1" stop-color="#956ED4" stop-opacity="0"></stop>
</radialGradient><radialGradient id="svg-565224127_3273_paint2_radial_308_672" cx="0" cy="0" r="1" gradientUnits="userSpaceOnUse" gradientTransform="translate(10.9286 4.45) rotate(90) scale(5.7375 6.55714)">
<stop stop-color="#E1CEFF"></stop>
<stop offset="1" stop-color="#956ED4" stop-opacity="0"></stop>
</radialGradient><radialGradient id="svg-565224127_3273_paint0_radial_308_672" cx="0" cy="0" r="1" gradientUnits="userSpaceOnUse" gradientTransform="translate(7.28571 4.45) rotate(90) scale(13.0688 12.4464)">
<stop stop-color="#B593EC"></stop>
<stop offset="1" stop-color="#521BAC"></stop>
</radialGradient><radialGradient id="svg-565224127_3273_paint1_radial_308_672" cx="0" cy="0" r="1" gradientUnits="userSpaceOnUse" gradientTransform="translate(3.64286 4.45) rotate(90) scale(5.7375 6.55714)">
<stop stop-color="#E1CEFF"></stop>
<stop offset="1" stop-color="#956ED4" stop-opacity="0"></stop>
</radialGradient><radialGradient id="svg-565224127_3273_paint2_radial_308_672" cx="0" cy="0" r="1" gradientUnits="userSpaceOnUse" gradientTransform="translate(10.9286 4.45) rotate(90) scale(5.7375 6.55714)">
<stop stop-color="#E1CEFF"></stop>
<stop offset="1" stop-color="#956ED4" stop-opacity="0"></stop>
</radialGradient></defs>
</svg>