<svg xmlns:xlink="http://www.w3.org/1999/xlink" width="64" height="18" viewBox="0 0 64 18" fill="none" xmlns="http://www.w3.org/2000/svg" id="svg-145192572_1669">
<path fill-rule="evenodd" clip-rule="evenodd" d="M6.23077 0L0 6L12.4615 18L18.6923 12L24.9231 6L18.6923 0H6.23077ZM18.6923 0V12L12.4615 6L18.6923 0ZM33.4523 15.2308C36.8387 15.2308 38.7692 13.0835 38.7692 9.85392V8.56889H33.6897V10.5641H36.2374C36.1899 11.9506 35.4146 13.1173 33.5156 13.1173C31.3002 13.1173 30.3666 11.4433 30.3666 9.10997V8.97472C30.3666 6.50609 31.5218 4.93361 33.484 4.93361C34.8449 4.93361 35.7152 5.57612 35.9367 6.99641H38.4844C38.2154 4.00364 35.9684 2.76929 33.4523 2.76929C30.1134 2.76929 27.6923 5.30554 27.6923 8.9409V9.07615C27.6923 12.6608 29.7495 15.2308 33.4523 15.2308ZM48.4457 12.1065C48.1761 14.1125 46.7493 15.2308 44.4821 15.2308C41.9771 15.2308 40.1539 13.4734 40.1539 10.5089V10.3668C40.1539 7.43785 42.0088 5.53848 44.4187 5.53848C46.5591 5.53848 48.4616 6.94088 48.4616 10.2603V10.9704H42.4845C42.5479 12.5148 43.2931 13.4024 44.5456 13.4024C45.6078 13.4024 46.1309 12.8876 46.2737 12.1065H48.4457ZM44.4187 7.31365C43.3882 7.31365 42.6906 8.07691 42.5162 9.39051H46.2261C46.1468 7.9882 45.5127 7.31365 44.4187 7.31365ZM52.3589 15.2308H49.8461V5.75585H52.3589V7.20515C52.8094 6.31743 53.7799 5.53848 55.1315 5.53848C56.3272 5.53848 57.2284 6.06384 57.6616 7.18708C58.3894 6.04568 59.5678 5.53848 60.7116 5.53848C62.3925 5.53848 63.6923 6.64357 63.6923 9.16174V15.2308H61.1968V9.45165C61.1968 8.23779 60.6769 7.69428 59.7758 7.69428C58.8054 7.69428 58.0255 8.34647 58.0255 9.63279V15.2308H55.5301V9.45165C55.5301 8.23779 54.9929 7.69428 54.1091 7.69428C53.1386 7.69428 52.3589 8.34647 52.3589 9.63279V15.2308Z" fill="#FFFFFF"></path>
</svg>