<svg xmlns="http://www.w3.org/2000/svg" xmlns:xlink="http://www.w3.org/1999/xlink" style="width: 100%; height: 100%" viewBox="0 0 70 24" preserveAspectRatio="none" width="70" height="24"><defs><svg width="70" height="24" viewBox="0 0 70 24" fill="none" xmlns="http://www.w3.org/2000/svg" id="svg-2069393328_2002">
<path d="M0 14.6533C0 20.4174 3.98322 24 9.02358 24C10.795 24 12.5663 23.571 13.8579 22.6031V18.0988C12.687 19.1454 11.1704 19.721 9.60094 19.7142C6.9825 19.7142 4.89398 17.8368 4.89398 14.6655C4.89398 11.4943 6.90931 9.70915 9.4776 9.65213H9.60094C11.1785 9.62091 12.7086 10.1938 13.8796 11.254V6.74156C12.5961 5.75191 10.8166 5.37451 9.04526 5.37451C3.98322 5.37451 0 8.95707 0 14.6533ZM24.127 5.37451C18.9932 5.37451 15.407 9.19735 15.407 14.6533C15.407 20.1093 18.9837 24 24.127 24C29.2704 24 32.8768 20.1432 32.8768 14.6533C32.8768 9.16341 29.3043 5.37451 24.127 5.37451ZM24.127 19.8052C21.6753 19.8052 20.3105 17.663 20.3105 14.6628C20.3105 11.6627 21.6753 9.54624 24.127 9.54624C26.5788 9.54624 27.9395 11.6884 27.9395 14.6628C27.9395 17.6372 26.6126 19.8052 24.127 19.8052ZM46.9232 7.25199C45.7427 6.03835 44.1177 5.35958 42.4263 5.37451C37.249 5.37451 34.3229 9.57068 34.3229 14.6533C34.3229 19.736 37.249 24 42.4263 24C44.115 24 45.7332 23.3239 46.9232 22.1225V23.5927H51.8605V0H46.9232V7.25199ZM46.9232 17.6236C46.2699 18.8834 44.9688 19.6735 43.5512 19.6681C40.8596 19.6681 39.2725 17.5245 39.2725 14.6533C39.2725 11.7821 40.8731 9.67385 43.5512 9.67385C44.9769 9.67657 46.2794 10.4816 46.9232 11.7563V17.6236ZM61.7406 5.37451C59.358 5.37451 57.0771 6.02613 55.78 6.84473V11.1305C57.2261 10.1761 58.9176 9.66571 60.6496 9.66028C63.1691 9.66028 64.6369 10.7531 64.6369 12.4935V13.4831C63.9186 12.9686 62.1811 12.4242 60.6496 12.4242C56.7342 12.4242 53.7742 14.7429 53.7742 18.1544C53.7742 21.8401 56.7355 23.9185 60.346 23.9185C62.2841 23.9185 64.0555 23.2371 64.6247 22.6587V23.6145H69.3913V12.1975C69.4035 7.86425 66.6102 5.37451 61.7406 5.37451ZM64.6369 18.7463C64.2086 19.702 62.8994 20.2844 61.5008 20.2844C59.9354 20.2844 58.3348 19.6328 58.3348 18.0988C58.3348 16.5647 59.9354 15.9172 61.5008 15.9172C62.8994 15.9172 64.1924 16.4955 64.6369 17.4512V18.745V18.7463Z" fill="#FFFFFF"></path>
</svg></defs><use href="#svg-2069393328_2002"></use></svg>