<svg xmlns:xlink="http://www.w3.org/1999/xlink" width="143" height="20" viewBox="0 0 143 20" fill="none" xmlns="http://www.w3.org/2000/svg" id="svg2071139726_3537">
<path fill-rule="evenodd" clip-rule="evenodd" d="M24.6209 12.7097C25.7159 15.3196 28.277 17.0113 31.1073 16.9942C34.9529 16.9773 38.0597 13.8517 38.0533 10.006C38.0532 7.17569 36.346 4.62489 33.7295 3.54576C31.113 2.46664 28.1039 3.0723 26.1087 5.07968C24.1134 7.08707 23.526 10.0997 24.6209 12.7097ZM22.2081 6.28833C23.7088 2.70496 27.2224 0.38032 31.1073 0.400521C36.3864 0.427973 40.6514 4.71531 40.6513 9.99449C40.6513 13.8794 38.3084 17.3808 34.7172 18.8628C31.1261 20.3448 26.9956 19.5148 24.2558 16.7606C21.5159 14.0064 20.7074 9.87171 22.2081 6.28833ZM66.3323 1.07628C66.3777 1.00075 66.4591 0.954239 66.5472 0.953478C66.6164 0.952453 66.6832 0.978968 66.7329 1.02719C66.7825 1.07541 66.811 1.14138 66.812 1.2106V19.0285H64.2101V8.50585L56.6501 18.7138C56.6122 18.7595 56.5559 18.7859 56.4966 18.7859C56.4372 18.7859 56.381 18.7595 56.3431 18.7138L48.783 8.50585V19.0285H46.1811V1.2106C46.1832 1.06798 46.2995 0.953463 46.4421 0.953478C46.5316 0.952894 46.6147 0.999578 46.6608 1.07628L56.4966 14.4503L66.3323 1.07628ZM82.7189 9.93281H76.6555V3.56241H82.7189C84.4759 3.56241 85.9002 4.98676 85.9002 6.74377C85.9002 8.50079 84.4759 9.92513 82.7189 9.92513V9.93281ZM82.7189 0.94518H74.0459V19.0202H76.6478V12.55H82.7112C85.9137 12.55 88.5098 9.95392 88.5098 6.75145C88.5098 3.54897 85.9137 0.952856 82.7112 0.952856L82.7189 0.94518ZM2.76974 11.5508C3.49474 14.7486 6.3455 17.0123 9.62436 16.9938C11.7784 16.9939 13.8092 15.9892 15.1159 14.2768L16.9848 16.1227C14.4057 19.2389 10.149 20.4026 6.34309 19.032C2.53724 17.6613 0 14.0507 0 10.0056C0 5.9604 2.53724 2.34984 6.34309 0.979151C10.149 -0.391533 14.4057 0.772184 16.9848 3.88845L15.1159 5.73432C13.1118 3.1392 9.57291 2.28643 6.6067 3.68386C3.64049 5.0813 2.04474 8.3531 2.76974 11.5508ZM119.356 8.3405L117.365 7.88767C115.223 7.42716 115.062 5.96887 115.062 5.5122C115.062 4.03473 116.24 3.18662 118.293 3.18662C120.404 3.18662 121.947 4.61804 122.419 5.10542L124.249 3.30559C122.53 1.50192 120.584 0.619279 118.293 0.619279C114.805 0.619279 112.46 2.58029 112.46 5.50069C112.46 6.42938 112.46 9.25385 117.15 10.409L119.329 10.9232C121.352 11.4796 122.334 12.4582 122.334 13.9088C122.334 15.6089 120.696 16.7947 118.355 16.7947C115.849 16.7947 114.306 15.0716 113.846 14.4922L112.038 16.2728C113.27 17.6773 115.373 19.3429 118.382 19.3429C122.131 19.3429 124.959 17.0019 124.959 13.9012C124.959 11.1228 123.04 9.19628 119.376 8.33283L119.356 8.3405ZM134.875 7.88767L136.867 8.3405H136.871C140.536 9.20396 142.455 11.1304 142.455 13.9088C142.455 17.0096 139.626 19.3505 135.877 19.3505C132.868 19.3505 130.765 17.685 129.533 16.2805L131.368 14.4806C131.825 15.0601 133.371 16.7832 135.877 16.7832C138.218 16.7832 139.853 15.5974 139.853 13.8973C139.853 12.4467 138.87 11.4681 136.852 10.9117L134.66 10.409C129.971 9.25385 129.971 6.42938 129.971 5.50069C129.971 2.58029 132.316 0.619279 135.804 0.619279C138.091 0.619279 140.041 1.50192 141.76 3.30559L139.926 5.10542C139.457 4.61804 137.915 3.18662 135.804 3.18662C133.751 3.18662 132.573 4.03473 132.573 5.5122C132.573 5.96887 132.734 7.42716 134.875 7.88767ZM96.1006 11.7795L99.0785 6.09983L102.06 11.7795H96.1006ZM99.0785 0.792445C98.9762 0.793351 98.8836 0.853112 98.8406 0.945948L89.3579 19.0287H92.3013L94.7267 14.3967H103.427L105.856 19.0287H108.795L99.3165 0.945948C99.2727 0.853742 99.1806 0.794268 99.0785 0.792445ZM28.843 14.1162L27.0048 12.2665L33.3637 5.8692L35.2057 7.71892L28.843 14.1162Z" fill="#FFFFFF"></path>
</svg>