<svg xmlns:xlink="http://www.w3.org/1999/xlink" width="188" height="15" viewBox="0 0 188 15" fill="none" xmlns="http://www.w3.org/2000/svg" id="svg73477249_2635">
<path d="M176.277 14.3385H177.771V3.19982L186.547 14.3385H187.773V0.74727H186.279V11.6433L177.72 0.74727H176.289V14.3385H176.277ZM158.457 9.35676L161.561 2.44617L164.652 9.35676H158.457ZM154.663 14.3385H156.234L157.844 10.7491H165.24L166.837 14.3385H168.484L162.289 0.64508H160.858L154.663 14.3385ZM133.867 14.3385H135.361V3.35311L140.318 10.6086H140.394L145.351 3.32756V14.3385H146.884V0.74727H145.325L140.369 8.1688L135.425 0.74727H133.867V14.3385ZM119.458 14.5557C122.856 14.5557 125.13 12.4991 125.13 8.53924V0.74727H123.597V8.6542C123.597 11.6305 122 13.1378 119.496 13.1378C116.916 13.1378 115.345 11.49 115.345 8.55201V0.74727H113.812V8.6542C113.812 12.4991 116.098 14.5557 119.458 14.5557ZM94.1527 14.3385H95.6855V8.2199H103.529V14.3385H105.062V0.74727H103.529V6.78924H95.6855V0.74727H94.1527V14.3385ZM76.5373 7.6834V2.16515H80.7272C82.9243 2.16515 84.2017 3.17428 84.2017 4.84763V4.88596C84.2017 6.63596 82.7455 7.6834 80.7017 7.6834H76.5373ZM75.0045 14.3385H76.5373V9.06296H80.4206L84.3678 14.3385H86.2456L82.0685 8.78194C84.2017 8.39873 85.7602 7.07026 85.7602 4.82209V4.78377C85.7602 3.71077 85.3769 2.76552 84.7127 2.10128C83.8568 1.24544 82.5156 0.74727 80.8549 0.74727H75.0045V14.3385ZM56.891 14.3385H66.8164V12.9462H58.4239V8.18158H65.8455V6.78924H58.4239V2.15238H66.7142V0.74727H56.891V14.3385ZM40.3359 8.14326V2.16515H43.7721C45.9692 2.16515 47.4255 3.17428 47.4255 5.11588V5.1542C47.4255 6.94253 45.9437 8.14326 43.6955 8.14326H40.3359ZM38.803 14.3385H40.3359V9.54836H43.6316C46.5185 9.54836 48.9711 8.02829 48.9711 5.10311V5.06479C48.9711 2.38231 46.9528 0.760044 43.8871 0.760044H38.803V14.3385ZM24.394 14.5557C27.7919 14.5557 30.0656 12.4991 30.0656 8.53924V0.74727H28.5328V8.6542C28.5328 11.6305 26.936 13.1378 24.4323 13.1378C21.852 13.1378 20.2808 11.49 20.2808 8.55201V0.74727H18.7479V8.6542C18.7479 12.4991 21.0344 14.5557 24.394 14.5557ZM6.0889 14.5301C8.78421 14.5301 10.7259 13.01 10.7259 10.6852V10.6469C10.7259 8.56479 9.33349 7.46625 6.29329 6.80201C3.30418 6.16333 2.60161 5.448 2.60161 4.15785V4.13231C2.60161 2.90603 3.72572 1.93523 5.48853 1.93523C6.88089 1.93523 8.14551 2.38231 9.41014 3.41698L10.3043 2.22902C8.9375 1.11771 7.51959 0.555664 5.53962 0.555664C2.95928 0.555664 1.06873 2.12683 1.06873 4.26004V4.29836C1.06873 6.53377 2.49942 7.54289 5.62904 8.2199C8.47764 8.82026 9.16743 9.53559 9.16743 10.8002V10.8385C9.16743 12.1798 7.96668 13.1506 6.14 13.1506C4.26223 13.1506 2.89541 12.5119 1.4775 11.2345L0.532227 12.3586C2.16729 13.8148 3.9301 14.5301 6.0889 14.5301Z" fill="#FFFFFF"></path>
</svg>